<svg width="20" height="26" viewBox="0 0 20 26" fill="none" xmlns="http://www.w3.org/2000/svg">
<path fill-rule="evenodd" clip-rule="evenodd" d="M0 9.75C0 12.98 0.948336 14.2972 5.48438 20.5977L5.48445 20.5978C6.46903 21.9654 7.62268 23.5678 8.97229 25.4754C9.46885 26.1748 10.5311 26.1749 11.0277 25.4754C12.3773 23.5678 13.5311 21.9652 14.5156 20.5977C19.0517 14.2972 20 12.98 20 9.75C20 4.36521 15.5229 0 10 0C4.47714 0 0 4.36521 0 9.75ZM9.5 13C11.433 13 13 11.433 13 9.5C13 7.567 11.433 6 9.5 6C7.567 6 6 7.567 6 9.5C6 11.433 7.567 13 9.5 13Z" fill="#24F5CB"/>
<circle cx="10" cy="10" r="5" fill="#38354A"/>
</svg>
