<svg width="24" height="24" viewBox="0 0 24 24" fill="none" xmlns="http://www.w3.org/2000/svg">
<path fill-rule="evenodd" clip-rule="evenodd" d="M11.5 17.0017C12.1743 16.0486 12.7588 15.232 13.2668 14.5224C14.3871 12.9574 15.1348 11.913 15.6499 11.0731C16.0361 10.4433 16.2335 10.0166 16.3445 9.64883C16.4519 9.2932 16.5 8.92188 16.5 8.375C16.5 5.70993 14.289 3.5 11.5 3.5C8.71097 3.5 6.5 5.70993 6.5 8.375C6.5 8.92188 6.54811 9.2932 6.65549 9.64883C6.76653 10.0166 6.96393 10.4433 7.35013 11.0731C7.86517 11.913 8.61285 12.9574 9.73316 14.5224L9.73317 14.5224L9.73318 14.5224L9.73321 14.5225C10.2412 15.2321 10.8258 16.0487 11.5 17.0017ZM7.80026 14.3978C4.95924 15.0451 3 16.4149 3 18C3 20.2091 6.80558 22 11.5 22C16.1944 22 20 20.2091 20 18C20 16.4149 18.0408 15.0451 15.1997 14.3978C17.4931 11.1769 18 10.2902 18 8.375C18 4.85417 15.0899 2 11.5 2C7.91014 2 5 4.85417 5 8.375C5 10.2902 5.50693 11.1769 7.80026 14.3978ZM14.2444 15.7343C13.6474 16.5686 12.9596 17.5315 12.168 18.657C11.8452 19.1143 11.1548 19.1143 10.832 18.657C10.0404 17.5315 9.3526 16.5686 8.75562 15.7343C7.73421 15.9162 6.84071 16.1935 6.12829 16.5288C4.71345 17.1946 4.5 17.8177 4.5 18C4.5 18.1823 4.71345 18.8054 6.12829 19.4712C7.4255 20.0816 9.32303 20.5 11.5 20.5C13.677 20.5 15.5745 20.0816 16.8717 19.4712C18.2866 18.8054 18.5 18.1823 18.5 18C18.5 17.8177 18.2866 17.1946 16.8717 16.5288C16.1593 16.1935 15.2658 15.9162 14.2444 15.7343ZM11.5 9.5C12.0523 9.5 12.5 9.05228 12.5 8.5C12.5 7.94772 12.0523 7.5 11.5 7.5C10.9477 7.5 10.5 7.94772 10.5 8.5C10.5 9.05228 10.9477 9.5 11.5 9.5ZM11.5 11C12.8807 11 14 9.88071 14 8.5C14 7.11929 12.8807 6 11.5 6C10.1193 6 9 7.11929 9 8.5C9 9.88071 10.1193 11 11.5 11Z" fill="white"/>
</svg>
