<svg width="24" height="24" viewBox="0 0 24 24" fill="none" xmlns="http://www.w3.org/2000/svg">
<path d="M19.8484 10.7213C18.6066 9.63675 16.6881 9.79965 15.5 11.056C14.3119 9.79965 12.3934 9.63452 11.1516 10.7213C9.53594 12.1338 9.77227 14.4368 10.9238 15.6574L14.6922 19.6452C14.907 19.8728 15.1949 20 15.5 20C15.8072 20 16.093 19.875 16.3078 19.6474L20.0762 15.6597C21.2256 14.439 21.4662 12.1361 19.8484 10.7213ZM19.3414 14.9054L15.573 18.8932C15.5215 18.9467 15.4785 18.9467 15.427 18.8932L11.6586 14.9054C10.8744 14.0753 10.7154 12.5043 11.8154 11.5425C12.6512 10.8128 13.9402 10.9221 14.748 11.7768L15.5 12.5734L16.252 11.7768C17.0641 10.9177 18.3531 10.8128 19.1846 11.5402C20.2824 12.502 20.1191 14.082 19.3414 14.9054Z" fill="white" stroke="white" stroke-width="0.2"/>
<path fill-rule="evenodd" clip-rule="evenodd" d="M15.5344 5.93766C13.9539 4.52777 11.5121 4.73955 10 6.37281C8.48789 4.73955 6.04609 4.52487 4.46563 5.93766C2.40938 7.77399 2.71016 10.7678 4.17578 12.3547L8.97187 17.5387C9.24531 17.8346 9.61172 18 10 18C10.391 18 10.7547 17.8375 11.0281 17.5416L11.7892 16.719L10.9644 15.6192L10.093 16.5611C10.0273 16.6307 9.97265 16.6307 9.90703 16.5611L5.11094 11.377C4.11289 10.2979 3.91055 8.25555 5.31055 7.00522C6.37422 6.0566 8.01484 6.19875 9.04297 7.30983L10 8.34548L10.957 7.30983C11.9906 6.19295 13.6312 6.0566 14.6894 7.00232C15.9365 8.11827 15.905 9.87433 15.1801 11H16.6638C17.2973 9.39392 17.0968 7.33335 15.5344 5.93766Z" fill="white"/>
</svg>
