<svg width="24" height="24" viewBox="0 0 24 24" fill="none" xmlns="http://www.w3.org/2000/svg">
<path fill-rule="evenodd" clip-rule="evenodd" d="M15.5 11.5C15.5 13.7091 13.7091 15.5 11.5 15.5C9.29086 15.5 7.5 13.7091 7.5 11.5C7.5 9.29086 9.29086 7.5 11.5 7.5C13.7091 7.5 15.5 9.29086 15.5 11.5ZM14.8226 15.8833C13.8996 16.5841 12.7484 17 11.5 17C8.46243 17 6 14.5376 6 11.5C6 8.46243 8.46243 6 11.5 6C14.5376 6 17 8.46243 17 11.5C17 12.7484 16.5841 13.8996 15.8833 14.8226L18.5303 17.4697C18.8232 17.7626 18.8232 18.2374 18.5303 18.5303C18.2374 18.8232 17.7626 18.8232 17.4697 18.5303L14.8226 15.8833Z" fill="white"/>
</svg>
