<svg width="303" height="170" viewBox="0 0 303 170" fill="none" xmlns="http://www.w3.org/2000/svg">
<path d="M47.5073 14.104C25.5429 32.5405 58.1873 52.6659 42.8066 63.1771C27.4259 73.6884 -40.7497 140.301 35.3091 153.816C124.759 169.71 106.472 180.314 152.623 154.074C198.773 127.834 193.961 130.466 234.515 144.031C275.069 157.597 314.449 130.532 298.295 102.067C282.142 73.6013 273.262 74.4803 287.876 54.8539C302.491 35.2274 270.133 -24.8214 218.039 18.3652C165.945 61.5517 158.222 38.2985 133.428 18.8586C120.003 8.33492 82.2172 -15.033 47.5073 14.104Z" fill="#38354A"/>
<path d="M228.762 42.1948C228.758 41.9049 228.696 41.6189 228.579 41.3535C228.462 41.0881 228.294 40.8487 228.083 40.6495C227.873 40.4498 227.625 40.2943 227.353 40.1923C227.082 40.0902 226.793 40.0436 226.503 40.0552L182.009 41.8382C181.642 41.8533 181.295 42.0118 181.044 42.2796C180.793 42.5473 180.657 42.903 180.665 43.2701L182.924 138.362L227.913 137.809C228.198 137.806 228.481 137.746 228.743 137.634C229.005 137.521 229.243 137.358 229.442 137.154C229.642 136.949 229.799 136.708 229.905 136.442C230.011 136.177 230.063 135.893 230.059 135.607L228.762 42.1948Z" fill="#605D72"/>
<path d="M192.932 59.7467L185.772 59.7605L185.688 47.5396H192.863L192.932 59.7467Z" fill="#CACFCE"/>
<path d="M203.21 59.7246L196.076 59.7384L196.015 47.5396H203.163L203.21 59.7246Z" fill="#CACFCE"/>
<path d="M214.017 59.6997L206.912 59.7135L206.874 47.5396H213.994L214.017 59.6997Z" fill="#CACFCE"/>
<path d="M224.499 59.6803L217.421 59.6928L217.406 47.5396H224.499V59.6803Z" fill="#CACFCE"/>
<path d="M193.03 77.0912L185.892 77.1299L185.808 64.9863L192.961 64.9642L193.03 77.0912Z" fill="#CACFCE"/>
<path d="M203.276 77.0373L196.164 77.0746L196.102 64.9545L203.229 64.931L203.276 77.0373Z" fill="#CACFCE"/>
<path d="M214.049 76.9793L206.966 77.018L206.928 64.9201L214.027 64.8979L214.049 76.9793Z" fill="#CACFCE"/>
<path d="M224.499 76.924L217.443 76.9613L217.428 64.8869L224.499 64.8647V76.924Z" fill="#CACFCE"/>
<path d="M193.13 94.8988L186.015 94.9596L185.932 82.8949L193.062 82.8492L193.13 94.8988Z" fill="#91B3FA"/>
<path d="M203.344 94.8118L196.254 94.8726L196.193 82.8286L203.297 82.783L203.344 94.8118Z" fill="#91B3FA"/>
<path d="M214.082 94.7192L207.022 94.78L206.984 82.7595L214.06 82.7139L214.082 94.7192Z" fill="#91B3FA"/>
<path d="M224.5 94.6307L217.465 94.6901L217.45 82.6931L224.5 82.6475V94.6307Z" fill="#91B3FA"/>
<path d="M193.229 112.308L186.137 112.391L186.055 100.687L193.163 100.619L193.229 112.308Z" fill="#91B3FA"/>
<path d="M203.409 112.19L196.343 112.273L196.283 100.589L203.365 100.521L203.409 112.19Z" fill="#91B3FA"/>
<path d="M214.115 112.064L207.077 112.147L207.039 100.485L214.093 100.418L214.115 112.064Z" fill="#91B3FA"/>
<path d="M224.499 111.942L217.487 112.023L217.472 100.386L224.499 100.318V111.942Z" fill="#91B3FA"/>
<path d="M193.327 129.892L186.258 129.997L186.178 118.368L193.262 118.276L193.327 129.892Z" fill="#91B3FA"/>
<path d="M203.477 129.741L196.433 129.846L196.373 118.238L203.432 118.146L203.477 129.741Z" fill="#91B3FA"/>
<path d="M214.147 129.581L207.132 129.686L207.095 118.1L214.126 118.01L214.147 129.581Z" fill="#91B3FA"/>
<path d="M224.5 129.428L217.509 129.531L217.494 117.967L224.5 117.877V129.428Z" fill="#91B3FA"/>
<path d="M120.856 32.6911C120.85 32.4386 120.792 32.19 120.687 31.9606C120.581 31.7312 120.429 31.5259 120.241 31.3573C120.053 31.1885 119.832 31.06 119.593 30.9799C119.353 30.8998 119.099 30.8697 118.847 30.8915L67.4364 35.3434C66.972 35.3822 66.5387 35.5923 66.2208 35.9328C65.9029 36.2734 65.7231 36.7201 65.7165 37.1858V140.507C65.7165 141.527 66.6041 142.279 67.6258 142.279H121.462C121.706 142.286 121.948 142.243 122.175 142.154C122.403 142.065 122.609 141.931 122.783 141.761C122.955 141.588 123.091 141.383 123.181 141.156C123.272 140.93 123.316 140.688 123.31 140.445L120.856 32.6911Z" fill="#605D72"/>
<path d="M75.9031 40.4394L71.7969 40.7047C71.5746 40.7271 71.3679 40.8293 71.2154 40.9926C71.0628 41.1558 70.9747 41.3688 70.9674 41.5921V135.838C70.9674 136.309 71.4251 136.553 71.8606 136.553H75.9611C76.066 136.556 76.1705 136.538 76.2682 136.5C76.3659 136.462 76.4548 136.404 76.5293 136.33C76.6039 136.257 76.6626 136.168 76.7018 136.071C76.7411 135.974 76.76 135.87 76.7575 135.765L76.6981 41.1926C76.7023 41.089 76.6842 40.9857 76.6452 40.8896C76.6062 40.7935 76.547 40.7069 76.4717 40.6355C76.3964 40.5642 76.3067 40.5097 76.2086 40.4759C76.1106 40.4421 76.0064 40.4296 75.9031 40.4394Z" fill="#CACFCE"/>
<path d="M85.4218 39.8161L81.3171 40.0842C81.0903 40.1062 80.879 40.2091 80.7218 40.3741C80.5647 40.5391 80.4722 40.7551 80.4613 40.9826L80.5608 135.763C80.5608 136.237 80.9867 136.553 81.4263 136.553H85.5739C86.0177 136.553 86.3122 136.236 86.3108 135.759L86.1518 40.5777C86.1532 40.1105 85.8601 39.7885 85.4218 39.8161Z" fill="#CACFCE"/>
<path d="M95.065 39.183L90.9078 39.4594C90.4653 39.4885 90.2165 39.8838 90.2165 40.3509L90.4183 135.759C90.4183 136.237 90.6782 136.555 91.1248 136.555H95.3277C95.777 136.555 96.2499 136.236 96.2485 135.756L95.9844 39.9418C95.9789 39.4691 95.5102 39.154 95.065 39.183Z" fill="#CACFCE"/>
<path d="M104.835 38.5445L100.623 38.8209C100.403 38.845 100.201 38.9516 100.058 39.1193C99.9142 39.287 99.8399 39.503 99.85 39.7235L100.156 135.752C100.15 135.858 100.167 135.963 100.204 136.062C100.241 136.161 100.299 136.25 100.373 136.326C100.447 136.401 100.536 136.46 100.634 136.5C100.732 136.539 100.837 136.557 100.942 136.554H105.202C105.312 136.559 105.421 136.543 105.525 136.505C105.628 136.467 105.722 136.409 105.803 136.334C105.883 136.259 105.947 136.169 105.992 136.068C106.037 135.968 106.061 135.859 106.063 135.75L105.694 39.3088C105.692 39.2008 105.668 39.0944 105.623 38.9962C105.578 38.898 105.513 38.8102 105.432 38.7384C105.352 38.6665 105.257 38.6122 105.154 38.5788C105.051 38.5455 104.943 38.5338 104.835 38.5445Z" fill="#CACFCE"/>
<path d="M114.736 37.8935L110.466 38.1699C110.237 38.1906 110.023 38.2953 109.866 38.4639C109.709 38.6325 109.619 38.8531 109.615 39.0835L110.03 135.741C110.032 135.852 110.057 135.96 110.103 136.061C110.148 136.162 110.213 136.252 110.294 136.327C110.375 136.402 110.47 136.461 110.574 136.499C110.677 136.537 110.787 136.554 110.898 136.548H115.215C115.322 136.553 115.429 136.534 115.529 136.495C115.628 136.456 115.719 136.396 115.794 136.32C115.869 136.244 115.927 136.152 115.966 136.052C116.004 135.952 116.02 135.845 116.015 135.738L115.538 38.6633C115.543 38.5581 115.526 38.4529 115.487 38.3549C115.448 38.2569 115.389 38.1683 115.313 38.0953C115.236 38.0223 115.146 37.9665 115.046 37.9317C114.947 37.8968 114.841 37.8838 114.736 37.8935Z" fill="#CACFCE"/>
<path d="M144.673 57.4868C144.669 57.2419 144.616 57.0004 144.518 56.7761C144.419 56.5519 144.277 56.3495 144.099 56.1807C143.922 56.0115 143.713 55.8794 143.484 55.792C143.255 55.7047 143.01 55.6639 142.765 55.672L102.72 56.9505C102.231 56.9664 101.767 57.1757 101.432 57.5324C101.097 57.8892 100.917 58.3644 100.931 58.8537L102.907 125.155C102.921 125.64 103.124 126.099 103.473 126.435C103.822 126.771 104.289 126.957 104.773 126.952L144.014 126.571C144.257 126.569 144.498 126.519 144.722 126.425C144.946 126.33 145.15 126.191 145.32 126.018C145.491 125.843 145.624 125.636 145.714 125.41C145.804 125.183 145.848 124.94 145.844 124.696L144.673 57.4868Z" fill="#7E7B90"/>
<path d="M140.495 60.6589H104.835C104.488 60.6589 104.21 60.8773 104.215 61.2118L104.248 64.341C104.248 64.6713 104.538 65.0321 104.885 65.0321L140.647 65.0652C141.001 65.0652 141.275 64.6838 141.264 64.3507L141.156 61.2146C141.144 60.8856 140.849 60.6589 140.495 60.6589Z" fill="#CACFCE"/>
<path d="M140.727 67.4314L104.911 67.3719C104.742 67.3818 104.584 67.4561 104.468 67.5795C104.352 67.7029 104.287 67.8661 104.288 68.0354L104.323 71.2143C104.327 71.3835 104.396 71.5445 104.515 71.6651C104.634 71.7856 104.794 71.8567 104.963 71.8639L140.88 71.9634C140.963 71.9615 141.046 71.943 141.122 71.9092C141.199 71.8753 141.268 71.8267 141.326 71.7661C141.384 71.7055 141.429 71.6342 141.459 71.5561C141.489 71.478 141.504 71.3948 141.502 71.3111L141.392 68.1003C141.382 67.927 141.309 67.7634 141.186 67.6403C141.064 67.5171 140.901 67.4428 140.727 67.4314Z" fill="#CACFCE"/>
<path d="M140.969 74.6075L104.994 74.4803C104.645 74.4803 104.363 74.6407 104.367 74.9752L104.401 78.1831C104.405 78.2641 104.424 78.3436 104.458 78.4172C104.492 78.4908 104.54 78.5569 104.599 78.6119C104.659 78.6668 104.729 78.7095 104.805 78.7374C104.881 78.7653 104.962 78.778 105.043 78.7747L141.117 78.935C141.198 78.9405 141.279 78.9293 141.355 78.9021C141.431 78.8749 141.501 78.8322 141.56 78.7768C141.618 78.7214 141.665 78.6544 141.697 78.5801C141.728 78.5057 141.744 78.4256 141.744 78.3448L141.633 75.1065C141.619 74.7734 141.325 74.6089 140.969 74.6075Z" fill="#7D97F4"/>
<path d="M141.204 81.6012L105.069 81.416C104.718 81.416 104.436 81.6427 104.439 81.9799L104.475 85.2169C104.475 85.5555 104.765 85.7463 105.117 85.749L141.352 85.9716C141.71 85.9716 141.995 85.785 141.983 85.4422L141.872 82.1762C141.86 81.8348 141.563 81.6026 141.204 81.6012Z" fill="#7D97F4"/>
<path d="M141.442 88.6542L105.148 88.4082C104.98 88.4082 104.819 88.4749 104.7 88.5936C104.581 88.7123 104.515 88.8733 104.515 89.0412L104.551 92.3059C104.551 92.6487 104.845 93.0191 105.199 93.0218L141.598 93.3107C141.959 93.3107 142.239 92.9444 142.227 92.5989L142.115 89.3025C142.105 89.1298 142.03 88.9673 141.905 88.8473C141.78 88.7273 141.615 88.6584 141.442 88.6542Z" fill="#7D97F4"/>
<path d="M141.681 95.7654L105.227 95.4558C104.871 95.4558 104.588 95.8165 104.592 96.1593L104.628 99.453C104.632 99.6248 104.702 99.7886 104.823 99.9107C104.944 100.033 105.107 100.104 105.279 100.109L141.84 100.462C141.925 100.463 142.009 100.446 142.087 100.414C142.165 100.381 142.236 100.333 142.295 100.272C142.354 100.212 142.4 100.14 142.431 100.061C142.462 99.9825 142.476 99.8983 142.474 99.8137L142.36 96.4883C142.348 96.1469 142.046 95.7751 141.681 95.7654Z" fill="#7D97F4"/>
<path d="M141.933 103.2L105.308 102.821C104.953 102.821 104.667 103.005 104.67 103.352L104.705 106.669C104.709 106.751 104.728 106.832 104.763 106.907C104.798 106.981 104.847 107.048 104.908 107.104C104.969 107.159 105.04 107.202 105.118 107.229C105.195 107.257 105.277 107.269 105.359 107.265L142.084 107.68C142.447 107.68 142.734 107.445 142.722 107.094L142.608 103.739C142.599 103.398 142.295 103.204 141.933 103.2Z" fill="#7D97F4"/>
<path d="M142.176 110.445L105.39 110.002C105.308 109.997 105.225 110.008 105.148 110.036C105.07 110.064 104.999 110.108 104.939 110.164C104.879 110.22 104.831 110.288 104.798 110.364C104.766 110.439 104.749 110.521 104.748 110.603L104.784 113.956C104.784 114.307 105.081 114.485 105.44 114.489L142.33 114.976C142.695 114.976 142.985 114.809 142.973 114.454L142.857 111.069C142.846 110.897 142.769 110.736 142.643 110.619C142.516 110.503 142.348 110.441 142.176 110.445Z" fill="#7D97F4"/>
<path d="M142.422 117.755L105.47 117.244C105.296 117.249 105.131 117.323 105.01 117.449C104.89 117.576 104.824 117.744 104.827 117.918L104.864 121.302C104.864 121.656 105.163 122.019 105.524 122.025L142.586 122.578C142.952 122.578 143.238 122.225 143.226 121.867L143.11 118.452C143.1 118.272 143.025 118.101 142.898 117.973C142.772 117.845 142.602 117.767 142.422 117.755Z" fill="#7D97F4"/>
<path d="M202.708 69.792H167.048C166.701 69.792 166.423 70.0104 166.426 70.3449L166.461 73.474C166.461 73.8044 166.749 74.1651 167.098 74.1651L202.86 74.1983C203.214 74.1983 203.488 73.8168 203.477 73.4837L203.367 70.3476C203.356 70.0145 203.062 69.792 202.708 69.792Z" fill="url(#paint0_linear_50_1705)"/>
<path d="M202.94 76.5674L167.124 76.5079C166.955 76.5178 166.796 76.5921 166.68 76.7155C166.564 76.8389 166.5 77.002 166.501 77.1714L166.535 80.3503C166.54 80.5195 166.608 80.6808 166.727 80.8014C166.846 80.922 167.006 80.993 167.175 80.9999L203.092 81.0994C203.176 81.0975 203.259 81.079 203.335 81.0452C203.412 81.0113 203.481 80.9627 203.539 80.9021C203.596 80.8415 203.642 80.7702 203.672 80.6921C203.702 80.614 203.717 80.5307 203.715 80.4471L203.605 77.2377C203.595 77.0641 203.522 76.9002 203.4 76.7768C203.277 76.6533 203.114 76.5789 202.94 76.5674Z" fill="url(#paint1_linear_50_1705)"/>
<path d="M203.181 83.7407L167.204 83.6177C166.855 83.6177 166.573 83.778 166.575 84.1125L166.61 87.3218C166.617 87.4853 166.689 87.6394 166.809 87.7502C166.93 87.8611 167.089 87.9197 167.253 87.9134L203.327 88.0737C203.408 88.079 203.489 88.0676 203.565 88.0403C203.641 88.0129 203.711 87.9701 203.77 87.9146C203.828 87.859 203.875 87.792 203.907 87.7175C203.938 87.6431 203.954 87.563 203.954 87.4822L203.843 84.2438C203.832 83.9038 203.538 83.7407 203.181 83.7407Z" fill="url(#paint2_linear_50_1705)"/>
<path d="M203.417 90.7302L167.282 90.5464C166.931 90.5464 166.647 90.7717 166.651 91.1089L166.686 94.3459C166.686 94.6859 166.978 94.8767 167.33 94.8781L203.569 95.102C203.929 95.102 204.213 94.914 204.201 94.5726L204.09 91.3052C204.072 90.9652 203.775 90.7316 203.417 90.7302Z" fill="url(#paint3_linear_50_1705)"/>
<path d="M203.655 97.7848L167.361 97.5374C167.278 97.5374 167.195 97.5537 167.118 97.5855C167.042 97.6174 166.972 97.664 166.913 97.7228C166.854 97.7815 166.807 97.8513 166.776 97.9281C166.744 98.0049 166.727 98.0873 166.727 98.1704L166.763 101.436C166.763 101.778 167.058 102.148 167.412 102.151L203.811 102.44C204.172 102.44 204.451 102.074 204.44 101.728L204.327 98.433C204.316 98.2605 204.241 98.0983 204.117 97.9783C203.993 97.8583 203.828 97.7893 203.655 97.7848Z" fill="url(#paint4_linear_50_1705)"/>
<path d="M203.894 104.901L167.439 104.59C167.084 104.59 166.801 104.951 166.805 105.294L166.841 108.589C166.845 108.761 166.914 108.924 167.035 109.046C167.156 109.168 167.319 109.239 167.491 109.244L204.053 109.598C204.138 109.598 204.222 109.581 204.3 109.549C204.378 109.516 204.448 109.468 204.507 109.407C204.566 109.346 204.613 109.275 204.643 109.196C204.674 109.117 204.689 109.033 204.686 108.948L204.573 105.623C204.561 105.276 204.26 104.904 203.894 104.901Z" fill="url(#paint5_linear_50_1705)"/>
<path d="M204.144 112.329L167.521 111.952C167.166 111.952 166.878 112.134 166.882 112.481L166.918 115.798C166.922 115.88 166.941 115.961 166.976 116.035C167.011 116.109 167.06 116.176 167.12 116.232C167.181 116.287 167.252 116.329 167.329 116.357C167.407 116.385 167.489 116.397 167.571 116.392L204.297 116.807C204.66 116.807 204.946 116.572 204.934 116.22L204.82 112.865C204.814 112.528 204.508 112.333 204.144 112.329Z" fill="url(#paint6_linear_50_1705)"/>
<path d="M204.389 119.576L167.601 119.131C167.519 119.126 167.437 119.138 167.36 119.166C167.282 119.194 167.212 119.237 167.152 119.293C167.092 119.35 167.044 119.418 167.011 119.493C166.978 119.568 166.961 119.65 166.961 119.732L166.997 123.085C166.997 123.436 167.293 123.614 167.652 123.619L204.537 124.1C204.903 124.1 205.194 123.932 205.181 123.577L205.065 120.192C205.053 120.022 204.976 119.864 204.85 119.749C204.724 119.635 204.559 119.572 204.389 119.576Z" fill="url(#paint7_linear_50_1705)"/>
<path d="M204.635 126.886L167.683 126.375C167.509 126.38 167.343 126.453 167.223 126.579C167.103 126.705 167.037 126.873 167.04 127.048L167.076 130.431C167.076 130.785 167.376 131.148 167.737 131.154L204.798 131.707C205.165 131.707 205.451 131.353 205.439 130.996L205.321 127.58C205.312 127.4 205.237 127.23 205.111 127.102C204.984 126.974 204.815 126.897 204.635 126.886Z" fill="url(#paint8_linear_50_1705)"/>
<path d="M35.11 21.0603C32.9767 21.9587 30.8905 23.3409 30.1992 24.8612C27.0581 31.6628 33.8906 40.1395 36.5464 45.9238C41.1088 55.86 43.4411 66.9158 42.0227 77.8306C40.4853 89.6577 39.9572 101.218 42.5093 112.988C43.8241 119.052 46.1924 125.401 50.6165 129.949C58.9767 138.537 77.5124 131.768 80.1904 121.061C82.3264 112.524 80.3452 103.613 77.446 95.5235C72.5684 81.9149 65.5341 69.2088 60.5708 55.6375C56.7757 45.2589 55.9697 23.9932 43.0125 20.437C40.6387 19.7804 37.3732 20.1135 35.11 21.0603Z" fill="#7E7B90"/>
<path d="M65.422 150.428C65.4031 150.429 65.3842 150.429 65.3653 150.428C65.2527 150.413 65.1507 150.354 65.0815 150.264C65.0123 150.173 64.9816 150.06 64.9962 149.947C69.824 113.229 61.9408 81.3039 54.4778 60.9891C46.3872 38.966 37.033 25.4569 36.9403 25.3297C36.8754 25.2365 36.85 25.1214 36.8697 25.0095C36.8894 24.8976 36.9525 24.7981 37.0454 24.7326C37.1386 24.6679 37.2537 24.6427 37.3654 24.6627C37.4771 24.6826 37.5763 24.7461 37.6413 24.839C37.7353 24.9773 47.1421 38.5541 55.2714 60.6726C60.0079 73.517 63.4026 86.8168 65.4013 100.36C67.8387 117.046 67.988 133.769 65.8451 150.064C65.8301 150.166 65.779 150.258 65.7013 150.325C65.6236 150.392 65.5245 150.428 65.422 150.428Z" fill="#A6A3B8"/>
<path d="M52.2921 123.779C50.3953 118.007 45.3352 112.836 41.4973 107.659C39.4677 104.922 37.7257 102.067 36.6805 98.8048C35.6353 95.5429 35.4114 91.5997 32.5979 89.268C26.9295 84.5687 22.0906 90.458 20.8076 96.7979C19.3255 104.156 22.5427 113.331 24.3179 120.751C25.388 125.223 26.0295 130.041 27.5862 134.363C30.1646 141.524 34.0551 145.434 38.8788 146.966C41.1298 147.68 43.5519 147.648 45.7827 146.872C48.0136 146.097 49.9334 144.62 51.2552 142.663C53.712 139.027 55.3503 133.09 52.2921 123.779Z" fill="#7E7B90"/>
<path d="M50.5031 156.078C50.4361 156.078 50.3699 156.063 50.3101 156.032C50.2503 156.002 50.1985 155.958 50.1588 155.904C50.1035 155.829 44.6065 148.326 38.8607 137.047C33.5545 126.633 26.9419 110.77 25.5649 94.339C25.5601 94.2831 25.5665 94.2268 25.5835 94.1733C25.6005 94.1199 25.6279 94.0703 25.6641 94.0274C25.7004 93.9846 25.7446 93.9492 25.7945 93.9235C25.8444 93.8977 25.8988 93.8821 25.9548 93.8774C26.0109 93.8724 26.0674 93.8787 26.1212 93.8957C26.1749 93.9127 26.2247 93.9402 26.2678 93.9766C26.3108 94.0129 26.3463 94.0574 26.372 94.1075C26.3978 94.1576 26.4134 94.2123 26.4179 94.2685C29.0323 125.454 50.6303 155.098 50.8473 155.393C50.9147 155.484 50.943 155.598 50.9262 155.71C50.9093 155.823 50.8486 155.924 50.7575 155.991C50.6842 156.047 50.595 156.077 50.5031 156.078Z" fill="#A6A3B8"/>
<path d="M249.345 79.6109C248.574 76.5701 248.209 73.4714 248.626 70.2648C249.677 62.1834 255.792 55.7826 260.582 49.6113C264.986 43.9376 269.209 35.0131 258.485 33.7166C249.942 32.6842 238.362 39.0642 235.469 47.5727C232.044 57.6416 234.443 71.6981 226.575 79.8831C215.567 91.3356 210.152 87.1062 205.669 109.279C203.755 118.753 207.946 125.035 213.377 129.132C217.561 132.287 222.612 134.086 227.849 134.288C233.087 134.489 238.26 133.082 242.674 130.257C250.661 125.143 256.511 116.655 257.053 107.058C257.602 97.3632 251.655 88.7261 249.345 79.6109Z" fill="#7E7B90"/>
<path d="M227.938 149.606C227.827 149.606 227.72 149.562 227.64 149.485C227.56 149.408 227.514 149.302 227.511 149.191C226.499 127.249 227.478 107.74 230.414 91.2085C232.764 77.9648 236.385 66.5856 241.158 57.3887C249.322 41.6585 257.933 37.8051 258.301 37.6489C258.353 37.6265 258.408 37.6145 258.464 37.6136C258.52 37.6127 258.576 37.6228 258.628 37.6435C258.68 37.6642 258.728 37.695 258.768 37.7341C258.808 37.7732 258.84 37.8199 258.862 37.8714C258.885 37.923 258.897 37.9784 258.898 38.0346C258.899 38.0908 258.889 38.1466 258.868 38.1989C258.847 38.2512 258.817 38.2988 258.777 38.3392C258.738 38.3795 258.692 38.4117 258.64 38.434C258.554 38.4727 249.891 42.3731 241.87 57.8877C234.451 72.2344 226.087 99.7142 228.365 149.151C228.368 149.207 228.36 149.263 228.34 149.316C228.321 149.369 228.292 149.418 228.254 149.459C228.216 149.501 228.171 149.534 228.12 149.558C228.069 149.582 228.013 149.595 227.957 149.597L227.938 149.606Z" fill="#A6A3B8"/>
<path d="M262.45 57.9305C262.04 57.729 261.595 57.6075 261.14 57.5725C258.448 57.3431 256.807 59.8973 255.596 61.9097C254.557 63.6333 253.323 65.73 253.306 67.8198C253.29 70.081 255.242 72.3214 257.364 70.4459C259.776 68.3215 263.415 65.0458 264.105 61.7231C264.448 60.077 263.78 58.5967 262.45 57.9305Z" fill="#7E7B90"/>
<path d="M280.661 123.983C283.17 117.114 282.238 108.458 282.468 100.705C282.588 96.6058 283.069 92.61 284.513 88.7469C285.948 84.9059 288.681 80.9903 287.766 76.6918C285.91 68.0257 276.939 69.9856 271.008 75.0332C264.124 80.8797 260.324 91.9479 256.473 100.285C254.152 105.311 251.169 110.343 249.423 115.588C246.519 124.279 247.289 130.873 250.708 135.906C252.304 138.258 254.619 140.03 257.306 140.958C259.993 141.886 262.908 141.92 265.616 141.054C270.642 139.458 276.614 135.064 280.661 123.983Z" fill="#7E7B90"/>
<path d="M255.222 153.125H255.208C255.154 153.128 255.1 153.12 255.049 153.102C254.998 153.083 254.952 153.054 254.913 153.016C254.874 152.979 254.843 152.933 254.823 152.883C254.802 152.833 254.792 152.779 254.794 152.725C254.794 152.615 255.192 141.456 258.162 126.521C260.904 112.731 266.475 92.8311 277.397 76.2868C277.428 76.2403 277.468 76.2003 277.515 76.1693C277.561 76.1383 277.614 76.1168 277.668 76.106C277.723 76.0952 277.78 76.0954 277.835 76.1065C277.89 76.1176 277.942 76.1394 277.988 76.1707C278.083 76.2338 278.149 76.3319 278.172 76.4435C278.195 76.5551 278.173 76.6712 278.11 76.7664C267.26 93.196 261.73 112.994 259.009 126.709C256.052 141.575 255.661 152.642 255.656 152.753C255.654 152.806 255.64 152.858 255.616 152.906C255.593 152.954 255.56 152.997 255.519 153.032C255.479 153.067 255.431 153.093 255.38 153.109C255.329 153.125 255.275 153.13 255.222 153.125Z" fill="#A6A3B8"/>
<path d="M64.8774 153.597L10.2575 167.673C10.1801 167.673 31.5085 168.088 31.2846 167.673C31.1366 167.25 77.229 153.811 77.0285 153.811L64.8774 153.597Z" fill="#7E7B90"/>
<path d="M86.8541 153.502C73.5348 158.271 60.5228 163.042 47.8182 167.814H68.9268C78.3852 163.147 88.2325 158.48 98.4688 153.812L86.8541 153.502Z" fill="#7E7B90"/>
<path d="M106.909 153.788L106.19 154.203C98.3882 158.736 91.1829 163.269 84.5743 167.802L100.938 167.861L120.444 153.456C115.998 153.567 111.486 153.677 106.909 153.788Z" fill="#7E7B90"/>
<path d="M201.099 153.502C212.749 158.271 224.708 163.042 236.977 167.814H258.087C243.112 163.147 228.528 158.48 214.334 153.812L201.099 153.502Z" fill="#7E7B90"/>
<path d="M222.648 153.788L224.111 154.203C240.029 158.734 256.549 163.266 273.668 167.799L290.337 167.858L234.444 153.454C230.581 153.566 226.649 153.678 222.648 153.788Z" fill="#7E7B90"/>
<path d="M132 153.878L120.74 167.814C120.602 167.814 143.566 168.565 142.662 167.861C141.757 167.158 145.717 153.456 145.582 153.456C141.14 153.597 136.613 153.738 132 153.878Z" fill="#7E7B90"/>
<path d="M155.142 153.456C156.308 158.335 157.474 163.215 158.64 168.095H176.046C173.585 162.885 170.725 157.873 167.492 153.104C163.444 153.222 159.327 153.339 155.142 153.456Z" fill="#7E7B90"/>
<path d="M180.515 153.174L201.739 168.101L226.745 168.169C213.288 163.266 201.096 158.364 190.168 153.463L180.515 153.174Z" fill="#7E7B90"/>
<path d="M256.609 84.0379C256.432 78.255 251.691 73.5004 245.903 73.5004H69.4466C64.6077 73.5004 60.373 76.8991 59.108 81.5666L45.9144 130.344L47.1255 146.1C47.2248 147.381 47.8026 148.578 48.744 149.452C49.6854 150.326 50.9214 150.814 52.2064 150.819H251.682C252.584 150.824 253.479 150.646 254.312 150.298C255.145 149.95 255.899 149.438 256.53 148.793C257.161 148.131 257.654 147.35 257.98 146.496C258.307 145.641 258.46 144.731 258.432 143.817L256.609 84.0379Z" fill="#24F5CB"/>
<path d="M137.45 78.067H100.368C96.4232 78.067 93.2249 81.2644 93.2249 85.2086V109.156C93.2249 113.1 96.4232 116.297 100.368 116.297H137.45C141.395 116.297 144.593 113.1 144.593 109.156V85.2086C144.593 81.2644 141.395 78.067 137.45 78.067Z" fill="#BDD0FB"/>
<path d="M192.527 78.067H155.446C151.501 78.067 148.302 81.2644 148.302 85.2086V109.156C148.302 113.1 151.501 116.297 155.446 116.297H192.527C196.472 116.297 199.67 113.1 199.67 109.156V85.2086C199.67 81.2644 196.472 78.067 192.527 78.067Z" fill="#BDD0FB"/>
<path d="M247.035 78.067H209.954C206.009 78.067 202.81 81.2644 202.81 85.2086V109.156C202.81 113.1 206.009 116.297 209.954 116.297H247.035C250.98 116.297 254.178 113.1 254.178 109.156V85.2086C254.178 81.2644 250.98 78.067 247.035 78.067Z" fill="#BDD0FB"/>
<path d="M58.0186 120.738C57.3974 120.732 56.785 120.59 56.2243 120.323C55.6636 120.055 55.1681 119.669 54.7724 119.19C54.2815 118.597 53.9323 117.899 53.7515 117.151C53.5706 116.403 53.5627 115.623 53.7285 114.871L59.1467 89.7351C59.6154 87.5624 61.3795 86.0544 63.4326 86.0544H84.4831C87.7265 86.0544 90.0796 88.8948 90.0796 92.4123V110.195C90.0796 113.344 88.0555 116.059 85.1813 116.509L58.5716 120.69C58.3889 120.721 58.2039 120.738 58.0186 120.738Z" fill="#BDD0FB"/>
<path fill-rule="evenodd" clip-rule="evenodd" d="M100.616 79.4934H137.487C140.781 79.4934 143.451 82.163 143.451 85.456V109.193C143.451 112.486 140.781 115.156 137.487 115.156H100.616C97.3219 115.156 94.6516 112.486 94.6516 109.193V85.456C94.6516 82.163 97.3219 79.4934 100.616 79.4934ZM155.124 79.4934H191.995C195.289 79.4934 197.959 82.163 197.959 85.456V109.193C197.959 112.486 195.289 115.156 191.995 115.156H155.124C151.83 115.156 149.16 112.486 149.16 109.193V85.456C149.16 82.163 151.83 79.4934 155.124 79.4934ZM246.501 79.4934H209.63C206.336 79.4934 203.666 82.163 203.666 85.456V109.193C203.666 112.486 206.336 115.156 209.63 115.156H246.501C249.795 115.156 252.465 112.486 252.465 109.193V85.456C252.465 82.163 249.795 79.4934 246.501 79.4934ZM63.4381 87.1961H84.4886C87.0864 87.1961 89.2334 89.5969 89.2293 92.4137V110.201C89.2293 112.735 87.4942 114.882 85.1798 115.244L58.4803 119.421C57.9518 119.498 57.4123 119.436 56.9147 119.242C56.417 119.048 55.9781 118.729 55.6406 118.315C55.281 117.878 55.0255 117.364 54.8933 116.813C54.7611 116.263 54.7557 115.689 54.8774 115.136L60.2956 89.9604C60.6371 88.3751 61.9394 87.1961 63.4381 87.1961Z" fill="#38354A"/>
<path opacity="0.6" d="M247.329 134.269H222.787C222.673 134.269 222.565 134.224 222.485 134.144C222.404 134.064 222.359 133.956 222.359 133.842C222.359 133.786 222.37 133.73 222.392 133.678C222.413 133.626 222.444 133.579 222.484 133.539C222.524 133.5 222.571 133.468 222.623 133.446C222.675 133.425 222.73 133.414 222.787 133.414H247.329C247.386 133.414 247.441 133.425 247.493 133.446C247.545 133.468 247.593 133.5 247.633 133.539C247.672 133.579 247.704 133.626 247.725 133.678C247.747 133.73 247.758 133.786 247.758 133.842C247.758 133.956 247.712 134.064 247.632 134.144C247.552 134.224 247.443 134.269 247.329 134.269Z" fill="white"/>
<path opacity="0.6" d="M191.966 134.269H103.783C103.67 134.269 103.561 134.224 103.481 134.144C103.401 134.064 103.356 133.956 103.356 133.842C103.356 133.786 103.367 133.73 103.388 133.678C103.41 133.626 103.441 133.579 103.481 133.539C103.52 133.5 103.568 133.468 103.62 133.446C103.671 133.425 103.727 133.414 103.783 133.414H191.966C192.079 133.414 192.188 133.459 192.269 133.539C192.349 133.62 192.394 133.729 192.394 133.842C192.394 133.956 192.349 134.064 192.268 134.144C192.188 134.224 192.079 134.269 191.966 134.269Z" fill="white"/>
<path opacity="0.6" d="M74.3905 134.269H55.8397C55.7264 134.269 55.6177 134.224 55.5376 134.144C55.4575 134.064 55.4125 133.956 55.4125 133.842C55.4123 133.786 55.4232 133.73 55.4446 133.678C55.466 133.626 55.4974 133.579 55.5371 133.539C55.5768 133.5 55.6239 133.468 55.6759 133.446C55.7278 133.425 55.7834 133.414 55.8397 133.414H74.3905C74.4467 133.414 74.5024 133.425 74.5543 133.446C74.6063 133.468 74.6534 133.5 74.6931 133.539C74.7328 133.579 74.7642 133.626 74.7856 133.678C74.807 133.73 74.8179 133.786 74.8177 133.842C74.8177 133.956 74.7727 134.064 74.6926 134.144C74.6125 134.224 74.5038 134.269 74.3905 134.269Z" fill="white"/>
<path opacity="0.6" d="M138.742 147.963H110.776C110.663 147.964 110.554 147.919 110.474 147.838C110.393 147.758 110.348 147.65 110.348 147.536V136.98C110.348 136.923 110.359 136.868 110.38 136.816C110.402 136.764 110.433 136.717 110.473 136.677C110.513 136.637 110.56 136.606 110.612 136.585C110.664 136.563 110.72 136.552 110.776 136.552H138.742C138.798 136.552 138.854 136.563 138.906 136.585C138.958 136.606 139.005 136.637 139.045 136.677C139.085 136.717 139.117 136.764 139.138 136.816C139.16 136.868 139.171 136.923 139.171 136.98V147.536C139.171 147.593 139.16 147.648 139.138 147.7C139.117 147.752 139.085 147.799 139.045 147.839C139.005 147.879 138.958 147.91 138.906 147.931C138.854 147.953 138.798 147.964 138.742 147.963ZM111.203 147.108H138.314V137.408H111.202L111.203 147.108Z" fill="white"/>
<path opacity="0.6" d="M167.851 146.252H157.293C157.179 146.252 157.07 146.207 156.99 146.127C156.91 146.047 156.864 145.938 156.864 145.824V138.692C156.864 138.578 156.91 138.47 156.99 138.389C157.07 138.309 157.179 138.264 157.293 138.264H167.851C167.965 138.264 168.074 138.309 168.155 138.389C168.235 138.47 168.28 138.578 168.28 138.692V145.824C168.28 145.938 168.235 146.047 168.155 146.127C168.074 146.207 167.965 146.252 167.851 146.252ZM157.72 145.396H167.423V139.119H157.72V145.396Z" fill="white"/>
<path opacity="0.6" d="M90.2289 130.988C90.1727 130.988 90.117 130.977 90.065 130.956C90.013 130.935 89.9658 130.903 89.926 130.863C89.8861 130.824 89.8545 130.777 89.833 130.725C89.8114 130.673 89.8004 130.617 89.8004 130.561V115.154C89.8004 115.098 89.8114 115.042 89.833 114.99C89.8545 114.938 89.8861 114.891 89.926 114.852C89.9658 114.812 90.013 114.781 90.065 114.759C90.117 114.738 90.1727 114.727 90.2289 114.727C90.3422 114.727 90.4509 114.772 90.531 114.852C90.6111 114.932 90.6561 115.041 90.6561 115.154V130.561C90.6561 130.674 90.6111 130.783 90.531 130.863C90.4509 130.943 90.3422 130.988 90.2289 130.988Z" fill="white"/>
<path fill-rule="evenodd" clip-rule="evenodd" d="M230.61 70.9586C229.907 70.1408 229.035 69.4854 228.054 69.0377C227.072 68.59 226.005 68.3607 224.927 68.3657H102.921C101.514 68.3602 100.135 68.753 98.943 69.4985C97.7507 70.2441 96.794 71.3119 96.1835 72.5785L93.4986 78.1637L235.257 76.3904L230.61 70.9586ZM65.5561 82.0185C65.3376 81.0842 64.504 80.3475 63.5431 80.3475H50.8072C49.7219 80.3475 48.7168 80.9874 48.1527 81.9135L43.7389 89.1933H43.6734C42.8131 89.1933 41.9882 89.5349 41.3799 90.143C40.7716 90.7511 40.4299 91.5758 40.4299 92.4358V99.9298C40.4299 100.79 40.7716 101.615 41.3798 102.223C41.988 102.831 42.813 103.173 43.6734 103.174H44.0342C44.4603 103.174 44.8823 103.09 45.2759 102.927C45.6696 102.764 46.0273 102.525 46.3286 102.224C46.6299 101.922 46.8689 101.565 47.032 101.171C47.1951 100.778 47.279 100.356 47.279 99.9298V92.4372C47.279 92.0112 47.1951 91.5893 47.032 91.1958C47.0121 91.1478 46.9911 91.1003 46.969 91.0533L49.4772 86.1691C49.7079 85.72 50.0565 85.3422 50.4857 85.0761C50.9148 84.81 51.4083 84.6656 51.9132 84.6584L63.7021 84.4649C63.9934 84.4535 64.2785 84.3777 64.5369 84.2429C64.7953 84.1081 65.0206 83.9177 65.1966 83.6854C65.3746 83.4506 65.499 83.1797 65.5611 82.8918C65.6232 82.6038 65.6215 82.3057 65.5561 82.0185Z" fill="#24F5CB"/>
<path d="M51.1211 130.777C50.9329 130.585 50.7059 130.436 50.4553 130.339C50.2047 130.242 49.9363 130.199 49.668 130.214L45.9144 130.423L46.7661 141.48L48.5813 140.215C49.4063 139.641 50.0921 138.889 50.5888 138.014C51.0854 137.14 51.3802 136.166 51.4515 135.164L51.6603 132.238C51.6794 131.97 51.6412 131.701 51.5482 131.449C51.4553 131.197 51.3096 130.968 51.1211 130.777Z" fill="#FFD771"/>
<path fill-rule="evenodd" clip-rule="evenodd" d="M253.523 133.414H258.749C259.562 133.414 260.172 134.228 260.172 135.038V148.998C260.172 150.898 258.684 152.243 256.783 152.243H252.261C250.361 152.243 248.756 150.898 248.756 148.998V138.269C248.756 135.672 250.925 133.414 253.523 133.414ZM47.7822 141.972H55.877C56.6733 141.972 56.9816 142.468 56.983 143.267V150.212C56.983 151.009 56.6733 151.39 55.877 151.39H47.7822C45.8826 151.39 43.8544 150.112 43.8544 148.211V145.263C43.8544 143.364 45.8826 141.972 47.7822 141.972Z" fill="#00B98F"/>
<path d="M97.1945 156.951C102.105 152.042 102.105 144.084 97.1945 139.175C92.2846 134.267 84.3239 134.267 79.4139 139.175C74.5039 144.084 74.504 152.042 79.4139 156.951C84.3239 161.86 92.2846 161.86 97.1945 156.951Z" fill="#E8EDEC"/>
<path d="M219.882 156.951C224.792 152.043 224.792 144.085 219.882 139.176C214.972 134.267 207.011 134.267 202.101 139.176C197.191 144.085 197.191 152.043 202.101 156.952C207.011 161.86 214.972 161.86 219.882 156.951Z" fill="#E8EDEC"/>
<path fill-rule="evenodd" clip-rule="evenodd" d="M92.2613 152.139C93.3427 151.058 93.9503 149.592 93.9507 148.063C93.9503 146.534 93.3427 145.068 92.2613 143.987C91.1799 142.906 89.7134 142.298 88.1841 142.298C86.6547 142.298 85.188 142.905 84.1065 143.987C83.0251 145.068 82.4175 146.534 82.4175 148.063C82.4175 149.592 83.0251 151.058 84.1065 152.139C85.188 153.221 86.6547 153.828 88.1841 153.828C89.7134 153.828 91.1799 153.22 92.2613 152.139ZM214.948 152.139C216.029 151.058 216.637 149.592 216.637 148.063C216.637 146.534 216.029 145.068 214.948 143.987C213.867 142.905 212.4 142.298 210.87 142.298C209.341 142.298 207.875 142.906 206.794 143.987C205.713 145.068 205.105 146.534 205.105 148.063C205.105 149.592 205.713 151.058 206.794 152.139C207.875 153.22 209.341 153.828 210.87 153.828C212.4 153.828 213.867 153.221 214.948 152.139Z" fill="#2E2B40"/>
<path d="M197.534 85.199H149.296C148.747 85.199 148.302 85.6439 148.302 86.1927V86.2024C148.302 86.7513 148.747 87.1962 149.296 87.1962H197.534C198.083 87.1962 198.528 86.7513 198.528 86.2024V86.1927C198.528 85.6439 198.083 85.199 197.534 85.199Z" fill="#91B3FA"/>
<path d="M252.042 85.199H203.804C203.255 85.199 202.81 85.6439 202.81 86.1927V86.2024C202.81 86.7513 203.255 87.1962 203.804 87.1962H252.042C252.591 87.1962 253.036 86.7513 253.036 86.2024V86.1927C253.036 85.6439 252.591 85.199 252.042 85.199Z" fill="#91B3FA"/>
<path d="M143.028 85.199H94.7899C94.2409 85.199 93.7958 85.6439 93.7958 86.1927V86.2024C93.7958 86.7513 94.2409 87.1962 94.7899 87.1962H143.028C143.577 87.1962 144.022 86.7513 144.022 86.2024V86.1927C144.022 85.6439 143.577 85.199 143.028 85.199Z" fill="#91B3FA"/>
<path d="M279.034 92.8795C283.92 94.1732 288.879 98.0308 288.701 103.51C288.55 108.169 283.371 109.981 280.201 110.74C279.317 110.952 278.541 111.48 278.019 112.224C276.775 114.006 274.026 117.03 270.599 115.464C270.546 115.438 270.503 115.396 270.477 115.344C270.451 115.291 270.442 115.232 270.454 115.174C270.465 115.117 270.496 115.065 270.54 115.026C270.584 114.988 270.64 114.965 270.698 114.962C271.571 114.923 272.794 114.686 273.564 113.805C274.614 112.594 274.035 110.701 272.505 110.225C269.612 109.326 264.072 106.677 264.156 99.5995C264.271 90.0282 279.034 92.8795 279.034 92.8795Z" fill="white"/>
<path d="M276.793 100.696C276.793 100.696 276.288 97.5428 273.169 98.3362C270.213 99.0881 271.522 103.107 275.967 105.357C276.205 105.477 276.468 105.538 276.734 105.535C277.001 105.532 277.262 105.466 277.498 105.341C279.285 104.396 283.412 101.769 280.763 98.8448C279.056 96.943 276.793 100.696 276.793 100.696Z" fill="#24F5CB"/>
<path d="M286.566 99.9118C286.473 99.9195 286.38 99.8999 286.299 99.8555C286.217 99.811 286.151 99.7436 286.107 99.6617C284.553 96.7232 281.367 94.7813 276.896 94.0432C276.835 94.0332 276.776 94.0111 276.724 93.9784C276.671 93.9456 276.625 93.9028 276.589 93.8524C276.553 93.8019 276.527 93.7449 276.513 93.6844C276.498 93.6239 276.496 93.5613 276.506 93.5C276.517 93.4388 276.539 93.3801 276.571 93.3274C276.604 93.2746 276.647 93.2288 276.697 93.1927C276.748 93.1565 276.805 93.1305 276.865 93.1164C276.926 93.1023 276.989 93.1002 277.05 93.1103C280.379 93.6631 284.792 95.1655 286.943 99.2194C287.002 99.3301 287.014 99.4595 286.977 99.5793C286.94 99.699 286.858 99.7992 286.747 99.8579C286.691 99.8882 286.629 99.9065 286.566 99.9118Z" fill="url(#paint9_linear_50_1705)"/>
<path d="M287.628 104.076C287.605 104.078 287.582 104.078 287.56 104.076C287.435 104.068 287.318 104.011 287.234 103.918C287.151 103.824 287.108 103.701 287.115 103.576C287.124 103.122 287.086 102.669 287 102.224C286.988 102.163 286.989 102.099 287.002 102.038C287.015 101.977 287.04 101.919 287.076 101.868C287.111 101.816 287.157 101.772 287.21 101.739C287.262 101.705 287.321 101.682 287.383 101.671C287.444 101.66 287.507 101.661 287.569 101.674C287.63 101.687 287.688 101.712 287.739 101.748C287.79 101.783 287.834 101.829 287.868 101.881C287.902 101.934 287.925 101.993 287.936 102.054C288.037 102.572 288.08 103.1 288.064 103.627C288.059 103.742 288.012 103.852 287.931 103.934C287.851 104.017 287.743 104.068 287.628 104.076Z" fill="url(#paint10_linear_50_1705)"/>
<path fill-rule="evenodd" clip-rule="evenodd" d="M135.755 26.3855C137.195 32.2357 140.757 42.0087 149.446 56.8054C150.145 57.9968 151.424 58.8205 152.807 58.8205C154.189 58.8205 155.471 57.9553 156.17 56.7625C164.728 42.1865 168.304 32.498 169.778 26.631C170.481 24.6177 170.814 22.5044 170.779 20.3962C170.8 19.6462 170.749 19.2939 170.749 19.2939H170.727C170.405 15.1748 168.669 11.1454 165.517 7.99486C158.498 0.977951 147.118 0.97795 140.1 7.99486C136.948 11.1454 135.212 15.1748 134.89 19.2939H134.837C134.837 19.2939 134.762 19.823 134.837 20.9633C134.864 22.797 135.17 24.6275 135.755 26.3855Z" fill="#FFD771"/>
<path opacity="0.8" d="M152.868 31.0187C158.6 31.0187 163.246 26.3733 163.246 20.6429C163.246 14.9125 158.6 10.2671 152.868 10.2671C147.136 10.2671 142.489 14.9125 142.489 20.6429C142.489 26.3733 147.136 31.0187 152.868 31.0187Z" fill="#FFFFA3"/>
<defs>
<linearGradient id="paint0_linear_50_1705" x1="182.66" y1="77.8347" x2="188.657" y2="62.3715" gradientUnits="userSpaceOnUse">
<stop stop-color="#B37CFF"/>
<stop offset="1" stop-color="#F895E7"/>
</linearGradient>
<linearGradient id="paint1_linear_50_1705" x1="-51376.2" y1="3914.63" x2="-51347.8" y2="3321.46" gradientUnits="userSpaceOnUse">
<stop stop-color="#B37CFF"/>
<stop offset="1" stop-color="#F895E7"/>
</linearGradient>
<linearGradient id="paint2_linear_50_1705" x1="-51559.4" y1="4034.4" x2="-51533" y2="3463.48" gradientUnits="userSpaceOnUse">
<stop stop-color="#B37CFF"/>
<stop offset="1" stop-color="#F895E7"/>
</linearGradient>
<linearGradient id="paint3_linear_50_1705" x1="-51751.3" y1="4359.54" x2="-51723.8" y2="3774.96" gradientUnits="userSpaceOnUse">
<stop stop-color="#B37CFF"/>
<stop offset="1" stop-color="#F895E7"/>
</linearGradient>
<linearGradient id="paint4_linear_50_1705" x1="-51944.5" y1="4948.01" x2="-51912.4" y2="4310.8" gradientUnits="userSpaceOnUse">
<stop stop-color="#B37CFF"/>
<stop offset="1" stop-color="#F895E7"/>
</linearGradient>
<linearGradient id="paint5_linear_50_1705" x1="-52130.2" y1="5317.38" x2="-52096.7" y2="4665.21" gradientUnits="userSpaceOnUse">
<stop stop-color="#B37CFF"/>
<stop offset="1" stop-color="#F895E7"/>
</linearGradient>
<linearGradient id="paint6_linear_50_1705" x1="-52317.8" y1="5420.16" x2="-52286.8" y2="4793.58" gradientUnits="userSpaceOnUse">
<stop stop-color="#B37CFF"/>
<stop offset="1" stop-color="#F895E7"/>
</linearGradient>
<linearGradient id="paint7_linear_50_1705" x1="-52501.8" y1="5813.63" x2="-52469.4" y2="5171.03" gradientUnits="userSpaceOnUse">
<stop stop-color="#B37CFF"/>
<stop offset="1" stop-color="#F895E7"/>
</linearGradient>
<linearGradient id="paint8_linear_50_1705" x1="-52713.8" y1="6525.08" x2="-52676.2" y2="5826.52" gradientUnits="userSpaceOnUse">
<stop stop-color="#B37CFF"/>
<stop offset="1" stop-color="#F895E7"/>
</linearGradient>
<linearGradient id="paint9_linear_50_1705" x1="-7150.7" y1="6366.93" x2="-6353.48" y2="6366.93" gradientUnits="userSpaceOnUse">
<stop stop-color="#DAE3FE"/>
<stop offset="1" stop-color="#E9EFFD"/>
</linearGradient>
<linearGradient id="paint10_linear_50_1705" x1="-392.445" y1="2436.92" x2="-384.108" y2="2436.92" gradientUnits="userSpaceOnUse">
<stop stop-color="#DAE3FE"/>
<stop offset="1" stop-color="#E9EFFD"/>
</linearGradient>
</defs>
</svg>
