<svg width="232" height="55" viewBox="0 0 232 55" fill="none" xmlns="http://www.w3.org/2000/svg">
<path fill-rule="evenodd" clip-rule="evenodd" d="M15.8697 47.1185L16.6329 47.1184V48.6918C16.6329 49.1054 16.4692 49.5021 16.1777 49.7946C15.8863 50.087 15.491 50.2513 15.0788 50.2513C14.6666 50.2513 14.2713 50.087 13.9799 49.7946C13.6884 49.5021 13.5247 49.1054 13.5247 48.6918V47.0906L15.3885 47.1073C15.5485 47.1147 15.7089 47.1185 15.8697 47.1185ZM32.9927 47.1185H20.3933V48.664C20.3988 49.3685 20.2655 50.0671 20.001 50.7197C19.7366 51.3724 19.3461 51.9661 18.8523 52.4668C18.3584 52.9676 17.7708 53.3654 17.1233 53.6376C16.4757 53.9097 15.7809 54.0507 15.0788 54.0526C13.6717 54.0489 12.3235 53.4854 11.3299 52.4857C10.3362 51.486 9.77816 50.1316 9.77817 48.7197V45.1691L9.77836 45.1428C9.3324 44.8197 8.90997 44.4597 8.51583 44.0647C6.56454 42.1093 5.46644 39.4567 5.46276 36.6895V13.3853H4.85579C4.18534 13.3853 3.64184 13.9288 3.64184 14.5992V19.455C3.64184 20.4607 2.82659 21.2759 1.82092 21.2759C0.815254 21.2759 0 20.4607 0 19.455V14.5992C0 11.9174 2.17401 9.74344 4.85579 9.74344H5.48611C5.65438 7.22673 6.72631 4.84706 8.51583 3.05376C10.4671 1.09834 13.112 -2.45975e-06 15.8697 0H37.5578C40.3131 0.00368396 42.9545 1.10362 44.9028 3.05864C46.6894 4.85144 47.7595 7.2291 47.9276 9.74344H48.5579C51.2397 9.74344 53.4137 11.9174 53.4137 14.5992V19.455C53.4137 20.4607 52.5984 21.2759 51.5928 21.2759C50.5871 21.2759 49.7718 20.4607 49.7718 19.455V14.5992C49.7718 13.9288 49.2283 13.3853 48.5579 13.3853H47.951V36.6895C47.9473 39.4543 46.8511 42.1048 44.9028 44.0598C44.4991 44.4649 44.0657 44.8332 43.6077 45.1627L43.6078 45.1691V48.664C43.6151 49.3678 43.4835 50.0661 43.2206 50.7187C42.9576 51.3712 42.5686 51.9651 42.0758 52.466C41.5831 52.9669 40.9964 53.365 40.3495 53.6373C39.7027 53.9096 39.0086 54.0508 38.3071 54.0526C36.8988 54.0489 35.5492 53.4858 34.5533 52.4865C33.5574 51.4872 32.9963 50.1329 32.9927 48.7197V47.1185ZM34.4251 43.3451H18.9606C18.8132 43.3084 18.6606 43.2894 18.5062 43.2894H15.0121C13.5681 43.1009 12.2168 42.44 11.1748 41.3966C9.92874 40.1488 9.22685 38.4559 9.22318 36.6895V31.8857H44.1905V36.6895C44.1869 38.4535 43.4869 40.1443 42.2439 41.3916C41.2014 42.4377 39.8481 43.1005 38.4017 43.2894H34.8659C34.7161 43.2905 34.5682 43.3094 34.4251 43.3451ZM36.753 47.1185V48.6918C36.7326 48.9081 36.7574 49.1262 36.8259 49.3322C36.8943 49.5383 37.0049 49.7278 37.1506 49.8884C37.2962 50.0491 37.4737 50.1775 37.6717 50.2653C37.8697 50.3531 38.0837 50.3985 38.3002 50.3985C38.5167 50.3985 38.7307 50.3531 38.9287 50.2653C39.1267 50.1775 39.3041 50.0491 39.4498 49.8884C39.5955 49.7278 39.7061 49.5383 39.7745 49.3322C39.843 49.1262 39.8678 48.9081 39.8474 48.6918V47.1184L38.1133 47.1028C37.9288 47.113 37.7436 47.1182 37.5578 47.1185H36.753ZM11.1748 5.72194C12.4209 4.47416 14.1093 3.77336 15.8697 3.77336H37.5578C39.3169 3.77336 41.004 4.47461 42.2479 5.72278C43.3297 6.80831 43.9992 8.23017 44.1553 9.74344L9.25979 9.74344C9.41889 8.22918 10.091 6.80722 11.1748 5.72194ZM9.22318 13.3853L24.8859 13.3853V28.1124H9.22318V13.3853ZM28.5278 13.3853V28.1124H44.1905V13.3853L28.5278 13.3853ZM18.8808 38.9869H14.3989C13.9281 38.9463 13.4896 38.7299 13.1702 38.3806C12.8507 38.0312 12.6734 37.5743 12.6734 37.1002C12.6734 36.626 12.8507 36.1692 13.1702 35.8198C13.4896 35.4705 13.9281 35.2541 14.3989 35.2135H18.8808C19.3516 35.2541 19.7901 35.4705 20.1095 35.8198C20.429 36.1692 20.6063 36.626 20.6063 37.1002C20.6063 37.5743 20.429 38.0312 20.1095 38.3806C19.7901 38.7299 19.3516 38.9463 18.8808 38.9869ZM34.6022 38.9869H39.0703C39.3308 39.0093 39.5931 38.9773 39.8406 38.8927C40.0881 38.8081 40.3153 38.6727 40.5079 38.4954C40.7006 38.318 40.8544 38.1024 40.9596 37.8622C41.0648 37.622 41.1191 37.3625 41.1191 37.1002C41.1191 36.8378 41.0648 36.5783 40.9596 36.3382C40.8544 36.098 40.7006 35.8824 40.5079 35.705C40.3153 35.5276 40.0881 35.3923 39.8406 35.3077C39.5931 35.2231 39.3308 35.191 39.0703 35.2135H34.6022C34.3418 35.191 34.0795 35.2231 33.832 35.3077C33.5845 35.3923 33.3573 35.5276 33.1646 35.705C32.972 35.8824 32.8182 36.098 32.713 36.3382C32.6078 36.5783 32.5535 36.8378 32.5535 37.1002C32.5535 37.3625 32.6078 37.622 32.713 37.8622C32.8182 38.1024 32.972 38.318 33.1646 38.4954C33.3573 38.6727 33.5845 38.8081 33.832 38.8927C34.0795 38.9773 34.3418 39.0093 34.6022 38.9869Z" fill="#24F5CB"/>
<path d="M73.16 25.624V50.44C72.936 50.536 72.6 50.616 72.152 50.68C71.736 50.776 71.288 50.824 70.808 50.824C69.816 50.824 69.112 50.648 68.696 50.296C68.28 49.912 68.072 49.288 68.072 48.424V25.624H59.576C59.416 25.4 59.272 25.112 59.144 24.76C59.048 24.408 59 24.008 59 23.56C59 22.856 59.16 22.328 59.48 21.976C59.832 21.592 60.296 21.4 60.872 21.4H81.752C81.88 21.592 81.992 21.864 82.088 22.216C82.216 22.568 82.28 22.952 82.28 23.368C82.28 24.872 81.656 25.624 80.408 25.624H73.16Z" fill="#FFD771"/>
<path d="M93.6091 47.32C94.7291 47.32 95.7051 47.208 96.5371 46.984C97.3691 46.76 97.9611 46.52 98.3131 46.264V40.168L93.0811 40.696C91.6091 40.856 90.5051 41.192 89.7691 41.704C89.0331 42.184 88.6651 42.936 88.6651 43.96C88.6651 45.016 89.0651 45.848 89.8651 46.456C90.6651 47.032 91.9131 47.32 93.6091 47.32ZM93.5131 27.4C96.4891 27.4 98.8571 28.056 100.617 29.368C102.377 30.648 103.257 32.68 103.257 35.464V46.648C103.257 47.384 103.081 47.96 102.729 48.376C102.409 48.76 101.961 49.128 101.385 49.48C100.553 49.96 99.4811 50.376 98.1691 50.728C96.8571 51.08 95.3371 51.256 93.6091 51.256C90.5051 51.256 88.0731 50.648 86.3131 49.432C84.5851 48.216 83.7211 46.424 83.7211 44.056C83.7211 41.944 84.3931 40.328 85.7371 39.208C87.1131 38.088 89.0811 37.4 91.6411 37.144L98.3131 36.472V35.416C98.3131 34.008 97.8491 32.984 96.9211 32.344C96.0251 31.704 94.7611 31.384 93.1291 31.384C91.8491 31.384 90.6171 31.56 89.4331 31.912C88.2491 32.264 87.1931 32.664 86.2651 33.112C85.9451 32.856 85.6731 32.552 85.4491 32.2C85.2251 31.816 85.1131 31.4 85.1131 30.952C85.1131 30.408 85.2411 29.96 85.4971 29.608C85.7851 29.256 86.2171 28.952 86.7931 28.696C87.6891 28.248 88.7131 27.928 89.8651 27.736C91.0171 27.512 92.2331 27.4 93.5131 27.4Z" fill="#FFD771"/>
<path d="M114.765 50.44C114.541 50.536 114.221 50.616 113.805 50.68C113.421 50.776 112.989 50.824 112.509 50.824C111.581 50.824 110.893 50.648 110.445 50.296C109.997 49.944 109.773 49.352 109.773 48.52V19.384C109.997 19.32 110.317 19.24 110.733 19.144C111.149 19.048 111.597 19 112.077 19C113.005 19 113.677 19.176 114.093 19.528C114.541 19.88 114.765 20.472 114.765 21.304V37.384L124.653 27.64C125.677 27.672 126.477 27.912 127.053 28.36C127.661 28.808 127.965 29.384 127.965 30.088C127.965 30.664 127.773 31.176 127.389 31.624C127.005 32.072 126.445 32.616 125.709 33.256L119.325 38.872L129.213 47.896C129.117 48.824 128.829 49.56 128.349 50.104C127.901 50.616 127.261 50.872 126.429 50.872C125.789 50.872 125.213 50.712 124.701 50.392C124.221 50.072 123.693 49.592 123.117 48.952L114.765 40.12V50.44Z" fill="#FFD771"/>
<path d="M137.237 41.848C137.685 43.672 138.549 45.032 139.829 45.928C141.141 46.792 142.805 47.224 144.821 47.224C146.165 47.224 147.397 47.016 148.517 46.6C149.637 46.184 150.533 45.736 151.205 45.256C152.101 45.768 152.549 46.488 152.549 47.416C152.549 47.96 152.341 48.472 151.925 48.952C151.509 49.4 150.933 49.8 150.197 50.152C149.493 50.472 148.645 50.728 147.653 50.92C146.693 51.112 145.653 51.208 144.533 51.208C142.677 51.208 140.981 50.952 139.445 50.44C137.941 49.928 136.645 49.16 135.557 48.136C134.469 47.112 133.621 45.848 133.013 44.344C132.437 42.84 132.149 41.096 132.149 39.112C132.149 37.192 132.437 35.512 133.013 34.072C133.589 32.6 134.373 31.384 135.365 30.424C136.357 29.432 137.525 28.68 138.869 28.168C140.213 27.656 141.653 27.4 143.189 27.4C144.725 27.4 146.117 27.656 147.365 28.168C148.645 28.648 149.733 29.336 150.629 30.232C151.557 31.096 152.261 32.136 152.741 33.352C153.253 34.568 153.509 35.896 153.509 37.336C153.509 38.136 153.317 38.728 152.933 39.112C152.549 39.464 151.989 39.704 151.253 39.832L137.237 41.848ZM143.189 31.288C141.429 31.288 139.957 31.88 138.773 33.064C137.621 34.248 137.013 35.944 136.949 38.152L148.757 36.472C148.629 35.032 148.101 33.816 147.173 32.824C146.245 31.8 144.917 31.288 143.189 31.288Z" fill="#FFD771"/>
<path d="M181.456 29.016C181.456 30.424 181.104 31.688 180.4 32.808C179.696 33.896 178.576 34.76 177.04 35.4C178.896 36.008 180.272 36.936 181.168 38.184C182.096 39.432 182.56 40.888 182.56 42.552C182.56 45.56 181.472 47.784 179.296 49.224C177.152 50.632 174.064 51.336 170.032 51.336C168.784 51.336 167.456 51.272 166.048 51.144C164.672 51.016 163.392 50.776 162.208 50.424C160.736 50.008 160 49.16 160 47.88V23.88C160 23.336 160.144 22.92 160.432 22.632C160.752 22.312 161.184 22.072 161.728 21.912C162.816 21.56 164.016 21.32 165.328 21.192C166.672 21.064 168.112 21 169.648 21C173.392 21 176.288 21.656 178.336 22.968C180.416 24.28 181.456 26.296 181.456 29.016ZM177.328 42.408C177.328 40.936 176.784 39.784 175.696 38.952C174.608 38.088 173.04 37.656 170.992 37.656H165.04V46.776C165.712 46.936 166.512 47.064 167.44 47.16C168.368 47.224 169.296 47.256 170.224 47.256C172.496 47.256 174.24 46.872 175.456 46.104C176.704 45.304 177.328 44.072 177.328 42.408ZM165.04 33.768H170.752C172.576 33.768 173.952 33.368 174.88 32.568C175.808 31.768 176.272 30.68 176.272 29.304C176.272 26.488 174.064 25.08 169.648 25.08C168.72 25.08 167.872 25.112 167.104 25.176C166.336 25.24 165.648 25.32 165.04 25.416V33.768Z" fill="white"/>
<path d="M188.11 28.344C188.334 28.28 188.654 28.216 189.07 28.152C189.486 28.056 189.934 28.008 190.414 28.008C191.342 28.008 192.014 28.184 192.43 28.536C192.878 28.888 193.102 29.496 193.102 30.36V42.216C193.102 44.072 193.582 45.4 194.542 46.2C195.534 46.968 196.894 47.352 198.622 47.352C199.742 47.352 200.686 47.24 201.454 47.016C202.222 46.792 202.83 46.552 203.278 46.296V28.344C203.534 28.28 203.854 28.216 204.238 28.152C204.654 28.056 205.102 28.008 205.582 28.008C206.51 28.008 207.198 28.184 207.646 28.536C208.094 28.888 208.318 29.496 208.318 30.36V46.536C208.318 47.24 208.206 47.816 207.982 48.264C207.758 48.712 207.31 49.144 206.638 49.56C205.806 50.04 204.702 50.472 203.326 50.856C201.982 51.24 200.398 51.432 198.574 51.432C195.278 51.432 192.702 50.712 190.846 49.272C189.022 47.8 188.11 45.48 188.11 42.312V28.344Z" fill="white"/>
<path d="M231.675 44.568C231.675 46.712 230.875 48.392 229.275 49.608C227.675 50.824 225.355 51.432 222.315 51.432C221.067 51.432 219.915 51.336 218.859 51.144C217.803 50.952 216.891 50.68 216.123 50.328C215.387 49.976 214.811 49.56 214.395 49.08C213.979 48.6 213.771 48.072 213.771 47.496C213.771 47.016 213.883 46.568 214.107 46.152C214.363 45.736 214.699 45.4 215.115 45.144C216.011 45.72 217.035 46.248 218.187 46.728C219.339 47.208 220.683 47.448 222.219 47.448C223.659 47.448 224.763 47.208 225.531 46.728C226.299 46.216 226.683 45.496 226.683 44.568C226.683 43.768 226.411 43.128 225.867 42.648C225.355 42.168 224.587 41.8 223.563 41.544L220.299 40.68C218.123 40.104 216.523 39.32 215.499 38.328C214.475 37.336 213.963 35.976 213.963 34.248C213.963 33.32 214.155 32.456 214.539 31.656C214.923 30.824 215.483 30.12 216.219 29.544C216.987 28.936 217.931 28.472 219.051 28.152C220.171 27.8 221.451 27.624 222.891 27.624C224.043 27.624 225.083 27.72 226.011 27.912C226.971 28.072 227.787 28.312 228.459 28.632C229.163 28.92 229.707 29.288 230.091 29.736C230.475 30.184 230.667 30.664 230.667 31.176C230.667 31.688 230.555 32.136 230.331 32.52C230.107 32.872 229.819 33.16 229.467 33.384C228.891 33.032 228.027 32.648 226.875 32.232C225.755 31.816 224.539 31.608 223.227 31.608C221.883 31.608 220.827 31.848 220.059 32.328C219.291 32.776 218.907 33.416 218.907 34.248C218.907 34.888 219.115 35.416 219.531 35.832C219.979 36.248 220.731 36.584 221.787 36.84L224.571 37.56C227.003 38.2 228.795 39.064 229.947 40.152C231.099 41.24 231.675 42.712 231.675 44.568Z" fill="white"/>
</svg>
