<svg width="265" height="156" viewBox="0 0 265 156" fill="none" xmlns="http://www.w3.org/2000/svg">
<g clip-path="url(#clip0_50_1876)">
<path d="M33.1173 150.136L33.1875 150.181C37.6586 153.082 42.8782 154.624 48.2111 154.619H244.833C251.264 154.619 256.911 150.476 258.56 144.514C260.664 136.905 260.323 128.326 256.681 119.62C242.994 86.8958 235.533 87.8789 247.722 65.3986C259.911 42.9183 232.465 -26.1122 188.902 23.297C145.339 72.7062 138.746 45.9889 117.835 23.5978C106.513 11.4755 74.6675 -15.4652 45.6446 17.8689C27.277 38.9631 34.8072 48.3844 21.9452 60.3985C9.08322 72.4126 -25.637 111.873 33.1173 150.136Z" fill="#38354A"/>
<path d="M195.626 155.9C195.626 155.9 216.369 93.9133 250.63 62.1579C252.934 60.018 256.689 61.2627 257.244 64.3512C260.953 84.9996 266.049 147.079 195.626 155.9Z" fill="#7E7B90"/>
<path d="M206.185 155.999C206.185 155.999 204.964 127.943 232.862 120.046C250.293 115.111 258.247 109.521 261.762 106.018C262.913 104.871 264.869 105.366 264.951 106.819C265.561 117.674 261.669 146.233 206.185 155.999Z" fill="#4C495E"/>
<path d="M219.444 95.8749C219.444 95.8749 199.912 74.8461 216.097 54.3011C226.214 41.462 228.618 33.0215 228.998 28.504C229.117 27.0216 230.953 26.3915 231.976 27.4709C239.642 35.5299 255.583 59.5949 219.444 95.8749Z" fill="#4C495E"/>
<path d="M57.6659 112.599C57.6659 112.599 38.1966 79.5217 14.6449 65.4474C14.2863 65.232 13.8762 65.1169 13.4577 65.1143C13.0392 65.1117 12.6277 65.2217 12.2665 65.4328C11.9054 65.6438 11.6078 65.9481 11.4052 66.3136C11.2025 66.6792 11.1023 67.0924 11.115 67.51C11.5068 79.8189 16.149 116.088 57.6659 112.599Z" fill="#4C495E"/>
<path d="M80.2339 105.488C80.2339 105.488 70.3908 39.5599 41.6086 1.60964C39.6733 -0.94154 35.6813 -0.360214 34.5821 2.6439C27.1888 22.7288 11.0637 84.1842 80.2339 105.488Z" fill="#7E7B90"/>
<path fill-rule="evenodd" clip-rule="evenodd" d="M74.1883 100.899C74.1886 100.852 74.1704 100.807 74.1375 100.774C51.2182 74.2695 41.6967 32.5424 39.4542 21.2547C39.4515 21.2391 39.4457 21.2241 39.4372 21.2108C39.4287 21.1974 39.4176 21.1858 39.4046 21.1767C39.3916 21.1676 39.3769 21.1611 39.3614 21.1577C39.3459 21.1542 39.3299 21.1539 39.3143 21.1566C39.2986 21.1593 39.2837 21.1651 39.2703 21.1736C39.2569 21.1821 39.2453 21.1931 39.2362 21.2061C39.227 21.2191 39.2206 21.2337 39.2171 21.2492C39.2136 21.2647 39.2133 21.2807 39.216 21.2963C44.5085 69.6189 67.7601 95.6134 73.8862 101.021C73.9191 101.055 73.9638 101.073 74.0106 101.074C74.0574 101.074 74.1024 101.056 74.1357 101.023C74.169 100.99 74.188 100.946 74.1883 100.899ZM233.094 44.9401C233.076 44.9593 233.067 44.9847 233.069 45.0106C232.738 64.4606 221.211 85.2671 217.95 90.7689C217.94 90.7847 217.937 90.8036 217.942 90.8216C217.944 90.8319 217.949 90.8414 217.956 90.8495C217.961 90.8554 217.967 90.8605 217.973 90.8646C217.989 90.8742 218.008 90.8772 218.026 90.8728C218.044 90.8685 218.06 90.8572 218.069 90.8414C233.793 68.8652 233.798 49.5042 233.264 44.9999C233.263 44.974 233.251 44.9498 233.232 44.9325C233.213 44.9152 233.187 44.9063 233.161 44.9077C233.135 44.9091 233.111 44.9208 233.094 44.9401ZM202.316 152.384C202.283 152.412 202.262 152.451 202.257 152.494C202.252 152.537 202.263 152.58 202.288 152.615C202.313 152.65 202.35 152.674 202.392 152.684C202.434 152.693 202.478 152.687 202.516 152.665C209.353 148.483 236.237 127.334 249.585 81.5748C249.595 81.5445 249.594 81.5112 249.58 81.4822C249.566 81.4533 249.541 81.431 249.511 81.4202C249.48 81.4095 249.447 81.4113 249.418 81.4251C249.389 81.4389 249.367 81.4637 249.356 81.4939C245.272 92.0113 228.965 130.684 202.316 152.384ZM253.438 119.693C253.519 119.593 253.677 119.674 253.609 119.781C251.18 123.747 238.826 139.673 211.67 150.065C211.655 150.072 211.637 150.072 211.621 150.066C211.615 150.063 211.61 150.06 211.605 150.056C211.596 150.049 211.59 150.041 211.586 150.031C211.579 150.015 211.579 149.998 211.586 149.982L211.588 149.976C211.591 149.971 211.594 149.967 211.597 149.963C211.6 149.96 211.603 149.957 211.606 149.955C211.611 149.951 211.615 149.949 211.62 149.947C217.852 147.01 240.754 135.532 253.438 119.693ZM53.3951 111.392C53.4199 111.403 53.4395 111.423 53.4496 111.448C53.4596 111.473 53.4593 111.501 53.4488 111.526C53.4382 111.55 53.4182 111.57 53.3932 111.58C53.3682 111.59 53.3402 111.59 53.3154 111.579C48.8792 110.007 30.8616 101.128 17.6174 76.47C17.6116 76.4545 17.6114 76.4376 17.6167 76.422C17.622 76.4064 17.6326 76.3931 17.6467 76.3844C17.6607 76.3757 17.6773 76.3722 17.6937 76.3743C17.7101 76.3765 17.7252 76.3843 17.7365 76.3963C21.3664 81.9409 35.4467 102.168 53.3951 111.392Z" fill="#A6A3B8"/>
<path d="M158.716 25.0898L99.3744 19.3015L39.9377 24.7569L38.8408 151.699L98.2537 149.068L157.609 153.062L216.968 148.256L218.053 22.6492L158.716 25.0898Z" fill="white"/>
<path d="M99.5531 146.185L43.1032 148.68L44.1441 28.2579L100.617 23.083L99.5531 146.185Z" fill="#4C495E"/>
<path d="M155.949 149.975L99.553 146.185L100.617 23.083L156.999 28.5753L155.949 149.975Z" fill="#605D72"/>
<path d="M212.348 145.416L155.949 149.975L156.999 28.5753L213.377 26.2607L212.348 145.416Z" fill="#38354A"/>
<path opacity="0.47" d="M100.58 23.6793L99.3024 23.6665L98.0688 146.807L99.3466 146.819L100.58 23.6793Z" fill="white"/>
<path d="M173.324 29.9316L187.87 39.6549L177.829 47.5854L166.159 38.1094L173.324 29.9316Z" fill="#A6A3B8"/>
<path d="M77.2458 47.9459L78.557 37.356L99.8079 42.8387L99.6912 56.2877L77.2458 47.9459Z" fill="#A6A3B8"/>
<path d="M198.617 114.947L210.47 109.992L211.98 120.264L201.632 123.019L198.617 114.947Z" fill="#A6A3B8"/>
<path d="M87.2627 122.153L99.0767 127.485L110.912 125.911L109.905 118.971L99.1696 116.746L87.2627 122.153Z" fill="#A6A3B8"/>
<path d="M51.1098 116.095L49.215 114.668L70.1253 87.0195L93.6437 85.5549L96.777 65.1597L75.4082 50.8239L44.2131 59.9504L43.5462 57.6762L75.8084 48.2371L99.353 64.0327L95.7004 87.8018L71.3626 89.3163L51.1098 116.095Z" fill="#7E7B90"/>
<path d="M42.205 107.332L40.654 109.127L65.0458 130.13L66.5968 128.335L42.205 107.332Z" fill="#7E7B90"/>
<path d="M190.908 103.518L176.804 118.569L178.538 120.188L192.643 105.138L190.908 103.518Z" fill="#7E7B90"/>
<path d="M182.724 55.5304L181.362 53.589C181.327 53.6131 181.293 53.6397 181.261 53.6687C182.022 52.9388 192.359 40.6691 199.125 32.5994L199.97 31.5925L215.06 47.072L213.358 48.7244L200.098 35.1269C198.613 36.8982 195.382 40.7463 192.147 44.5826C183.187 55.207 182.94 55.3794 182.724 55.5304Z" fill="#7E7B90"/>
<path d="M151.853 67.8262L147.035 51.4848L141.105 36.5748L113.969 37.8896L113.843 35.5227L142.769 34.1211L149.395 50.7906L154.227 67.183L151.853 67.8262Z" fill="#7E7B90"/>
<path d="M177.521 48.9656L176.347 47.4749L186.299 39.681L172.69 29.7236L173.813 28.1936L189.44 39.6287L177.521 48.9656Z" fill="#7E7B90"/>
<path d="M202.829 123.734L202.339 121.903L210.68 119.682L209.47 111.454L198.745 115.938L198.01 114.188L210.994 108.761L212.804 121.079L202.829 123.734Z" fill="#7E7B90"/>
<path d="M199.937 66.7076L197.646 67.3315L212.918 123.212L215.209 122.588L199.937 66.7076Z" fill="#7E7B90"/>
<path d="M99.3423 143.786L64.5267 129.612L65.4235 127.417L98.5169 140.891L108.084 127.776L99.5697 129.728L85.1536 122.882L86.1742 120.742L99.8436 127.234L113.742 124.047L99.3423 143.786Z" fill="#7E7B90"/>
<path d="M107.289 66.4293L99.0719 57.1982C80.5352 50.4945 59.4141 43.5483 42.996 42.6306L43.1151 40.5002C59.8881 41.4382 81.3105 48.5009 100.056 55.2842L100.309 55.377L108.884 65.0063L107.289 66.4293Z" fill="#A6A3B8"/>
<path d="M191.533 70.4355L129.888 67.4504L129.992 65.3201L191.172 68.2826L213.702 59.2881L214.495 61.2686L191.533 70.4355Z" fill="#A6A3B8"/>
<path fill-rule="evenodd" clip-rule="evenodd" d="M75.2011 48.2858L77.0934 48.4463L78.0105 37.6971L99.6198 42.3489L100.02 40.4955L76.3003 35.3884L75.2011 48.2858ZM48.6888 56.5651L48.1751 58.3906L78.5747 66.9147L79.0884 65.0891L48.6888 56.5651ZM150.499 93.9484L114.167 104.76L114.041 104.598L113.625 104.922L112.941 105.125L113.021 105.391L112.542 105.762L113.498 106.987L113.62 107.397L113.78 107.349L124.867 121.57L111.281 126.444L112.004 128.451L126.292 123.327L151.748 147.362L153.053 145.984L128.295 122.609L158.419 111.807C172.613 116.654 192.993 129.047 211.009 140.303L212.148 138.489C194.138 127.238 173.768 114.852 159.372 109.872L145.16 74.0584L142.952 74.9314L150.499 93.9484ZM156.9 110.079L151.377 96.1607L115.732 106.768L126.748 120.896L156.9 110.079ZM169.82 83.4111L168.12 84.2574L182.29 112.615L183.99 111.769L169.82 83.4111ZM185.649 69.172C182.097 54.9063 175.103 45.0523 164.267 39.0286L165.306 37.1657C171.285 40.4884 176.227 44.994 179.997 50.5565C183.419 55.6089 185.951 61.5303 187.722 68.6572L185.649 69.172ZM42.8221 136.746L43.5736 138.743L99.3065 117.832L109.799 118.965L110.028 116.844L99.0314 115.658L42.8221 136.746Z" fill="#7E7B90"/>
<path fill-rule="evenodd" clip-rule="evenodd" d="M107.466 23.6938L109.454 22.9121L123.354 58.1366L121.366 58.9182L107.466 23.6938ZM146.348 149.895L175.449 118.992L177.18 120.616L148.078 151.518L146.348 149.895ZM74.2257 126.702L72.4524 125.493L92.7374 94.9028C78.184 93.4417 65.7266 90.1233 58.1684 82.1133L59.7238 80.651C70.5481 92.1218 92.6076 93.4782 116.186 93.93L116.145 96.0627C108.927 95.9243 101.846 95.7002 95.163 95.128L74.2257 126.702Z" fill="#A6A3B8"/>
<path d="M113.599 146.516L108.829 116.576L108.908 116.332L123.787 70.369L130.374 59.4546L156.182 45.8178L173.479 27.1416L175.048 28.5908L157.503 47.5332L131.897 61.063L125.745 71.2582L111.019 116.744L115.709 146.182L113.599 146.516Z" fill="#A6A3B8"/>
<path d="M213.446 145.084L183.899 90.6108L128.588 69.8411L118.732 67.4052L82.911 64.3916L43.0817 93.0027L41.8336 91.2706L82.3037 62.1995L82.6967 62.2327L119.081 65.2939L129.223 67.8011L129.281 67.8225L185.399 88.8941L185.589 89.2448L215.325 144.069L213.446 145.084Z" fill="#A6A3B8"/>
<path d="M57.3693 132.982C57.2456 132.982 57.126 132.938 57.0315 132.858C56.937 132.778 56.8736 132.668 56.8523 132.546C56.831 132.425 56.8532 132.299 56.9151 132.192C56.9769 132.085 57.0745 132.004 57.1907 131.961L59.3939 131.167C59.4589 131.144 59.528 131.133 59.5971 131.136C59.6661 131.14 59.7339 131.156 59.7965 131.186C59.8591 131.215 59.9153 131.257 59.9619 131.308C60.0084 131.359 60.0445 131.418 60.0679 131.483C60.0914 131.548 60.1018 131.617 60.0986 131.686C60.0954 131.755 60.0786 131.823 60.0491 131.885C60.0197 131.948 59.9783 132.004 59.9271 132.05C59.876 132.097 59.8162 132.133 59.7512 132.156L57.5491 132.95C57.4915 132.971 57.4307 132.982 57.3693 132.982ZM61.7757 131.394C61.652 131.393 61.5325 131.349 61.438 131.27C61.3435 131.19 61.28 131.08 61.2587 130.958C61.2374 130.836 61.2597 130.711 61.3215 130.604C61.3834 130.497 61.4809 130.415 61.5971 130.373L63.8003 129.579C63.9317 129.532 64.0765 129.538 64.2029 129.598C64.3293 129.657 64.427 129.764 64.4744 129.895C64.5217 130.026 64.515 130.171 64.4556 130.297C64.3962 130.423 64.289 130.521 64.1576 130.568L61.9556 131.362C61.8973 131.382 61.836 131.391 61.7745 131.389L61.7757 131.394ZM66.1821 129.806C66.0584 129.805 65.9389 129.761 65.8444 129.682C65.7499 129.602 65.6864 129.491 65.6651 129.37C65.6439 129.248 65.6661 129.123 65.7279 129.016C65.7898 128.909 65.8873 128.827 66.0035 128.785L68.2067 127.991C68.3381 127.943 68.4829 127.95 68.6094 128.009C68.7358 128.069 68.8334 128.176 68.8808 128.307C68.9282 128.438 68.9214 128.583 68.862 128.709C68.8026 128.835 68.6954 128.932 68.564 128.98L66.362 129.774C66.3033 129.793 66.2416 129.803 66.1798 129.801L66.1821 129.806ZM100.639 129.093C100.506 129.094 100.377 129.046 100.278 128.956C100.179 128.866 100.118 128.743 100.107 128.61C100.097 128.477 100.137 128.345 100.219 128.241C100.302 128.137 100.422 128.068 100.553 128.048L102.864 127.665C102.932 127.654 103.002 127.656 103.069 127.672C103.137 127.687 103.2 127.716 103.257 127.756C103.313 127.797 103.361 127.847 103.397 127.906C103.434 127.965 103.458 128.03 103.469 128.098C103.481 128.166 103.478 128.236 103.463 128.303C103.447 128.371 103.418 128.434 103.378 128.49C103.337 128.546 103.287 128.594 103.228 128.63C103.169 128.667 103.104 128.691 103.035 128.703L100.726 129.085C100.696 129.089 100.667 129.089 100.637 129.088L100.639 129.093ZM98.4074 129C98.3205 129 98.2349 128.978 98.1585 128.937L96.0946 127.831C95.9767 127.762 95.8901 127.651 95.8531 127.519C95.8161 127.388 95.8316 127.248 95.8962 127.127C95.9609 127.007 96.0697 126.917 96.1997 126.875C96.3298 126.834 96.471 126.844 96.5936 126.904L98.6575 128.01C98.7609 128.065 98.8427 128.154 98.8901 128.261C98.9374 128.368 98.9476 128.488 98.9188 128.602C98.8901 128.716 98.8242 128.817 98.7316 128.889C98.6389 128.961 98.5249 129 98.4074 129ZM105.259 128.327C105.126 128.328 104.997 128.279 104.898 128.19C104.8 128.1 104.739 127.976 104.728 127.844C104.718 127.711 104.758 127.58 104.84 127.475C104.923 127.371 105.042 127.302 105.174 127.282L107.485 126.9C107.623 126.878 107.764 126.911 107.877 126.992C107.991 127.073 108.067 127.196 108.09 127.334C108.113 127.471 108.08 127.612 107.999 127.726C107.917 127.839 107.794 127.916 107.656 127.938L105.346 128.32C105.316 128.323 105.286 128.324 105.256 128.322L105.259 128.327ZM70.5874 128.218C70.4637 128.217 70.3441 128.173 70.2496 128.093C70.1551 128.014 70.0916 127.903 70.0704 127.782C70.0491 127.66 70.0713 127.535 70.1332 127.428C70.195 127.321 70.2926 127.239 70.4087 127.196L72.612 126.402C72.7433 126.355 72.8882 126.362 73.0146 126.421C73.141 126.48 73.2386 126.587 73.286 126.719C73.3334 126.85 73.3266 126.994 73.2672 127.12C73.2078 127.247 73.1006 127.344 72.9692 127.391L70.7672 128.186C70.7085 128.205 70.6469 128.214 70.585 128.213L70.5874 128.218ZM109.88 127.563C109.746 127.564 109.617 127.515 109.519 127.425C109.421 127.336 109.36 127.212 109.349 127.079C109.338 126.947 109.378 126.815 109.461 126.711C109.544 126.607 109.663 126.538 109.795 126.518L112.105 126.135C112.243 126.112 112.385 126.145 112.498 126.226C112.612 126.308 112.688 126.431 112.711 126.568C112.734 126.706 112.701 126.847 112.619 126.96C112.538 127.074 112.415 127.15 112.277 127.173L109.967 127.555C109.937 127.559 109.907 127.56 109.877 127.558L109.88 127.563ZM94.2785 126.789C94.1915 126.789 94.1059 126.767 94.0296 126.726L91.9657 125.62C91.8478 125.551 91.7612 125.439 91.7242 125.308C91.6872 125.177 91.7027 125.036 91.7673 124.916C91.8319 124.796 91.9408 124.706 92.0708 124.664C92.2009 124.622 92.3421 124.633 92.4647 124.693L94.5274 125.798C94.6307 125.854 94.7125 125.942 94.7598 126.05C94.8072 126.157 94.8174 126.277 94.7888 126.39C94.7603 126.504 94.6946 126.605 94.6021 126.677C94.5097 126.749 94.3958 126.788 94.2785 126.789ZM74.9855 126.628C74.8614 126.628 74.7414 126.585 74.6464 126.505C74.5514 126.426 74.4875 126.315 74.4662 126.193C74.4448 126.071 74.4673 125.946 74.5296 125.839C74.5919 125.732 74.6901 125.65 74.8068 125.608L77.01 124.814C77.0751 124.791 77.1442 124.78 77.2132 124.783C77.2823 124.787 77.3501 124.803 77.4127 124.833C77.4753 124.862 77.5314 124.904 77.578 124.955C77.6246 125.006 77.6607 125.065 77.6841 125.13C77.7076 125.195 77.718 125.264 77.7148 125.333C77.7115 125.402 77.6947 125.47 77.6653 125.532C77.6359 125.595 77.5944 125.651 77.5433 125.697C77.4922 125.744 77.4324 125.78 77.3673 125.803L75.1653 126.597C75.1088 126.616 75.0496 126.625 74.9902 126.623L74.9855 126.628ZM114.429 126.516C114.302 126.517 114.179 126.472 114.083 126.39C113.986 126.308 113.923 126.193 113.904 126.068C113.886 125.943 113.913 125.815 113.982 125.708C114.05 125.601 114.155 125.523 114.276 125.487L116.519 124.812C116.651 124.777 116.792 124.794 116.912 124.861C117.031 124.928 117.12 125.038 117.159 125.169C117.199 125.3 117.186 125.441 117.123 125.562C117.06 125.684 116.952 125.776 116.823 125.82L114.58 126.494C114.532 126.507 114.483 126.513 114.434 126.512L114.429 126.516ZM118.913 125.167C118.786 125.168 118.663 125.123 118.567 125.04C118.471 124.958 118.408 124.843 118.389 124.718C118.371 124.593 118.398 124.465 118.467 124.358C118.535 124.252 118.64 124.173 118.762 124.138L121.004 123.464C121.138 123.423 121.282 123.438 121.405 123.504C121.528 123.57 121.62 123.682 121.66 123.815C121.7 123.949 121.686 124.093 121.62 124.216C121.554 124.339 121.441 124.43 121.308 124.471L119.065 125.145C119.017 125.158 118.967 125.164 118.918 125.162L118.913 125.167ZM79.3907 125.04C79.267 125.039 79.1474 124.995 79.0529 124.916C78.9584 124.836 78.895 124.726 78.8737 124.604C78.8524 124.482 78.8747 124.357 78.9365 124.25C78.9984 124.143 79.0959 124.061 79.2121 124.019L81.4153 123.225C81.5453 123.183 81.6864 123.194 81.8088 123.254C81.9312 123.315 82.0254 123.42 82.0716 123.548C82.1179 123.676 82.1126 123.817 82.0568 123.942C82.001 124.066 81.8991 124.164 81.7725 124.215L79.5705 125.009C79.5141 125.028 79.4549 125.036 79.3955 125.035L79.3907 125.04ZM90.1471 124.578C90.0602 124.578 89.9746 124.556 89.8982 124.514L87.8344 123.409C87.7165 123.34 87.6299 123.228 87.5929 123.097C87.5559 122.966 87.5713 122.825 87.636 122.705C87.7006 122.585 87.8094 122.495 87.9395 122.453C88.0695 122.411 88.2108 122.422 88.3334 122.482L90.396 123.587C90.4994 123.643 90.5812 123.731 90.6285 123.838C90.6759 123.946 90.6861 124.065 90.6575 124.179C90.629 124.293 90.5633 124.394 90.4708 124.466C90.3784 124.538 90.2645 124.577 90.1471 124.578ZM123.398 123.818C123.271 123.819 123.148 123.774 123.051 123.691C122.955 123.609 122.892 123.495 122.873 123.369C122.855 123.244 122.882 123.116 122.951 123.009C123.019 122.903 123.124 122.824 123.245 122.788L125.488 122.114C125.622 122.074 125.766 122.089 125.889 122.155C126.012 122.221 126.104 122.333 126.144 122.466C126.184 122.6 126.17 122.744 126.104 122.867C126.038 122.989 125.925 123.081 125.792 123.121L123.55 123.795C123.502 123.808 123.452 123.814 123.403 123.813L123.398 123.818ZM83.7959 123.452C83.6722 123.451 83.5527 123.407 83.4582 123.327C83.3637 123.248 83.3002 123.137 83.2789 123.016C83.2577 122.894 83.2799 122.769 83.3417 122.662C83.4036 122.555 83.5011 122.473 83.6173 122.431L85.8193 121.636C85.8851 121.61 85.9556 121.597 86.0265 121.598C86.0975 121.6 86.1674 121.615 86.2322 121.644C86.2969 121.673 86.3552 121.715 86.4034 121.767C86.4517 121.819 86.4889 121.88 86.513 121.946C86.537 122.013 86.5473 122.084 86.5433 122.155C86.5393 122.225 86.5211 122.294 86.4897 122.358C86.4583 122.421 86.4144 122.478 86.3606 122.524C86.3068 122.57 86.2442 122.605 86.1766 122.627L83.9746 123.421C83.9185 123.439 83.8597 123.448 83.8007 123.447L83.7959 123.452ZM127.876 122.447C127.752 122.448 127.632 122.405 127.537 122.326C127.441 122.246 127.377 122.136 127.355 122.015C127.333 121.893 127.355 121.767 127.417 121.66C127.478 121.553 127.576 121.471 127.692 121.428L129.889 120.619C129.955 120.594 130.024 120.582 130.094 120.583C130.164 120.585 130.233 120.601 130.297 120.63C130.361 120.659 130.418 120.7 130.466 120.751C130.514 120.802 130.551 120.862 130.575 120.927C130.599 120.993 130.61 121.063 130.607 121.132C130.604 121.202 130.587 121.271 130.557 121.334C130.528 121.397 130.486 121.454 130.434 121.501C130.382 121.547 130.321 121.583 130.255 121.607L128.058 122.415C128.001 122.434 127.941 122.444 127.88 122.442L127.876 122.447ZM132.27 120.83C132.147 120.83 132.027 120.787 131.932 120.707C131.838 120.628 131.774 120.518 131.752 120.397C131.73 120.275 131.752 120.15 131.813 120.043C131.874 119.936 131.971 119.854 132.087 119.81L134.284 119.002C134.349 118.978 134.418 118.967 134.487 118.97C134.556 118.972 134.624 118.989 134.687 119.017C134.75 119.046 134.806 119.087 134.853 119.138C134.9 119.189 134.937 119.248 134.961 119.313C134.985 119.378 134.996 119.447 134.993 119.516C134.991 119.585 134.975 119.652 134.946 119.715C134.917 119.778 134.876 119.834 134.825 119.881C134.774 119.928 134.715 119.965 134.65 119.989L132.452 120.797C132.395 120.817 132.335 120.826 132.275 120.826L132.27 120.83ZM136.665 119.212C136.541 119.212 136.422 119.169 136.327 119.089C136.232 119.01 136.168 118.9 136.147 118.779C136.125 118.657 136.146 118.532 136.207 118.425C136.269 118.318 136.366 118.236 136.481 118.192L138.679 117.384C138.743 117.36 138.812 117.349 138.882 117.352C138.951 117.354 139.019 117.371 139.082 117.399C139.144 117.428 139.201 117.469 139.248 117.52C139.295 117.571 139.332 117.63 139.356 117.695C139.38 117.76 139.391 117.829 139.388 117.898C139.385 117.967 139.369 118.034 139.34 118.097C139.311 118.16 139.27 118.216 139.219 118.263C139.169 118.31 139.109 118.347 139.044 118.371L136.847 119.18C136.79 119.199 136.73 119.208 136.669 119.208L136.665 119.212ZM176.787 119.08C176.716 119.081 176.645 119.067 176.58 119.039L175.657 118.645C175.534 118.587 175.438 118.483 175.39 118.356C175.342 118.229 175.345 118.088 175.399 117.963C175.452 117.838 175.552 117.738 175.677 117.685C175.803 117.632 175.944 117.629 176.071 117.678L176.673 117.934L177.387 117.25C177.437 117.202 177.496 117.164 177.56 117.139C177.624 117.114 177.693 117.102 177.762 117.103C177.831 117.104 177.9 117.119 177.963 117.147C178.026 117.174 178.084 117.214 178.132 117.264C178.179 117.314 178.217 117.372 178.242 117.437C178.268 117.501 178.28 117.569 178.279 117.638C178.277 117.707 178.262 117.775 178.235 117.839C178.207 117.902 178.167 117.959 178.117 118.007L177.154 118.934C177.055 119.025 176.926 119.075 176.792 119.073L176.787 119.08ZM173.71 117.773C173.639 117.773 173.569 117.758 173.504 117.73L171.349 116.812C171.221 116.758 171.119 116.654 171.067 116.525C171.015 116.395 171.016 116.25 171.071 116.122C171.126 115.994 171.23 115.892 171.359 115.84C171.489 115.788 171.634 115.79 171.762 115.845L173.917 116.762C174.028 116.81 174.12 116.895 174.176 117.002C174.232 117.11 174.25 117.233 174.225 117.352C174.201 117.47 174.136 117.577 174.042 117.654C173.949 117.73 173.831 117.773 173.71 117.773ZM141.059 117.596C140.936 117.594 140.817 117.55 140.723 117.471C140.629 117.391 140.566 117.281 140.545 117.16C140.524 117.038 140.547 116.914 140.608 116.807C140.67 116.701 140.767 116.619 140.883 116.577L143.08 115.767C143.21 115.724 143.352 115.733 143.475 115.792C143.599 115.852 143.694 115.957 143.742 116.085C143.789 116.213 143.785 116.355 143.729 116.48C143.674 116.605 143.572 116.704 143.445 116.755L141.247 117.564C141.188 117.583 141.126 117.592 141.064 117.59L141.059 117.596ZM179.438 116.533C179.333 116.533 179.23 116.502 179.143 116.443C179.056 116.385 178.988 116.301 178.949 116.204C178.909 116.107 178.9 116 178.922 115.897C178.944 115.794 178.996 115.701 179.072 115.628L180.759 114.007C180.86 113.915 180.994 113.867 181.13 113.872C181.267 113.877 181.396 113.935 181.491 114.033C181.586 114.132 181.639 114.263 181.639 114.4C181.638 114.536 181.585 114.667 181.49 114.765L179.804 116.387C179.705 116.477 179.576 116.527 179.443 116.527L179.438 116.533ZM145.454 115.979C145.33 115.978 145.211 115.935 145.116 115.855C145.022 115.776 144.958 115.666 144.937 115.545C144.915 115.423 144.937 115.298 144.998 115.191C145.059 115.084 145.156 115.002 145.272 114.959L147.469 114.15C147.6 114.102 147.745 114.108 147.872 114.166C147.998 114.225 148.097 114.331 148.145 114.462C148.194 114.593 148.188 114.737 148.129 114.864C148.071 114.991 147.964 115.089 147.833 115.137L145.636 115.946C145.579 115.965 145.519 115.974 145.458 115.973L145.454 115.979ZM169.402 115.937C169.331 115.937 169.26 115.923 169.195 115.896L167.04 114.978C166.917 114.919 166.822 114.816 166.774 114.689C166.726 114.561 166.729 114.42 166.782 114.295C166.836 114.17 166.936 114.071 167.061 114.018C167.186 113.965 167.328 113.962 167.455 114.01L169.608 114.928C169.72 114.975 169.812 115.06 169.869 115.167C169.925 115.274 169.943 115.398 169.919 115.517C169.894 115.636 169.83 115.742 169.735 115.819C169.641 115.896 169.524 115.937 169.402 115.937ZM149.848 114.361C149.725 114.36 149.605 114.317 149.511 114.237C149.416 114.158 149.353 114.048 149.331 113.927C149.31 113.805 149.331 113.68 149.392 113.573C149.453 113.466 149.55 113.384 149.666 113.341L151.863 112.533C151.994 112.484 152.139 112.49 152.266 112.548C152.393 112.607 152.491 112.713 152.54 112.844C152.588 112.975 152.582 113.119 152.524 113.246C152.465 113.373 152.359 113.471 152.228 113.519L150.03 114.329C149.973 114.347 149.913 114.356 149.853 114.355L149.848 114.361ZM165.092 114.103C165.021 114.103 164.951 114.089 164.886 114.061L162.732 113.144C162.603 113.089 162.502 112.985 162.449 112.856C162.397 112.727 162.399 112.582 162.454 112.453C162.508 112.325 162.612 112.224 162.742 112.172C162.871 112.12 163.016 112.121 163.145 112.176L165.299 113.094C165.411 113.141 165.503 113.226 165.56 113.333C165.617 113.44 165.634 113.564 165.61 113.683C165.585 113.802 165.52 113.909 165.426 113.985C165.332 114.062 165.214 114.103 165.092 114.103ZM182.811 113.29C182.706 113.29 182.603 113.259 182.515 113.2C182.428 113.142 182.361 113.058 182.321 112.961C182.282 112.864 182.273 112.757 182.295 112.654C182.317 112.551 182.369 112.458 182.445 112.385L184.131 110.764C184.232 110.667 184.367 110.614 184.507 110.616C184.646 110.619 184.779 110.677 184.876 110.777C184.973 110.878 185.026 111.012 185.024 111.152C185.021 111.291 184.963 111.424 184.863 111.521L183.176 113.144C183.078 113.234 182.95 113.284 182.817 113.284L182.811 113.29ZM154.242 112.744C154.118 112.744 153.999 112.7 153.904 112.62C153.81 112.541 153.746 112.431 153.725 112.31C153.703 112.189 153.724 112.064 153.786 111.956C153.847 111.849 153.944 111.767 154.059 111.724L156.257 110.915C156.387 110.871 156.528 110.88 156.652 110.94C156.775 110.999 156.871 111.104 156.918 111.232C156.965 111.361 156.961 111.502 156.905 111.627C156.85 111.752 156.748 111.851 156.621 111.902L154.424 112.711C154.367 112.73 154.307 112.739 154.247 112.738L154.242 112.744ZM160.784 112.269C160.713 112.269 160.643 112.255 160.577 112.227L158.423 111.309C158.3 111.251 158.204 111.147 158.156 111.02C158.108 110.893 158.111 110.752 158.165 110.627C158.218 110.502 158.318 110.402 158.444 110.349C158.569 110.296 158.71 110.293 158.837 110.342L160.991 111.259C161.102 111.307 161.194 111.391 161.251 111.498C161.308 111.606 161.325 111.729 161.301 111.848C161.277 111.967 161.212 112.074 161.118 112.15C161.024 112.227 160.906 112.269 160.784 112.269ZM186.189 110.038C186.084 110.038 185.982 110.007 185.895 109.948C185.808 109.889 185.741 109.806 185.702 109.709C185.662 109.612 185.653 109.505 185.675 109.403C185.697 109.3 185.748 109.207 185.824 109.134L187.511 107.512C187.561 107.464 187.62 107.427 187.684 107.401C187.749 107.376 187.817 107.364 187.887 107.365C187.956 107.366 188.024 107.381 188.087 107.409C188.151 107.436 188.208 107.476 188.256 107.526C188.304 107.576 188.342 107.634 188.367 107.699C188.392 107.763 188.405 107.831 188.404 107.9C188.402 107.97 188.387 108.038 188.36 108.101C188.332 108.164 188.292 108.222 188.242 108.269L186.555 109.891C186.457 109.986 186.326 110.039 186.189 110.038ZM189.563 106.795C189.458 106.796 189.355 106.764 189.268 106.706C189.181 106.647 189.113 106.564 189.074 106.466C189.034 106.369 189.025 106.262 189.047 106.16C189.069 106.057 189.122 105.963 189.198 105.891L190.884 104.269C190.934 104.221 190.993 104.184 191.057 104.158C191.121 104.133 191.19 104.121 191.259 104.122C191.328 104.123 191.397 104.138 191.46 104.166C191.523 104.193 191.581 104.233 191.629 104.283C191.677 104.333 191.715 104.391 191.74 104.455C191.765 104.52 191.778 104.588 191.776 104.657C191.775 104.726 191.76 104.795 191.732 104.858C191.705 104.921 191.665 104.978 191.615 105.026L189.929 106.648C189.831 106.743 189.7 106.797 189.563 106.798V106.795ZM190.861 103.173C190.762 103.173 190.664 103.145 190.58 103.092C190.495 103.039 190.428 102.963 190.385 102.873L189.381 100.766C189.351 100.703 189.334 100.636 189.331 100.567C189.327 100.498 189.338 100.429 189.361 100.363C189.408 100.232 189.505 100.125 189.632 100.065C189.758 100.005 189.903 99.9979 190.035 100.045C190.166 100.092 190.274 100.189 190.334 100.315L191.338 102.426C191.376 102.507 191.394 102.595 191.389 102.684C191.383 102.773 191.356 102.859 191.308 102.934C191.26 103.009 191.194 103.071 191.116 103.114C191.038 103.156 190.95 103.178 190.861 103.178V103.173ZM188.852 98.9492C188.753 98.9493 188.655 98.9212 188.571 98.8681C188.486 98.8151 188.419 98.7394 188.376 98.6496L187.372 96.5371C187.319 96.412 187.316 96.2712 187.365 96.1442C187.413 96.0172 187.509 95.9138 187.632 95.8557C187.755 95.7975 187.896 95.789 188.025 95.8321C188.154 95.8751 188.261 95.9663 188.325 96.0865L189.329 98.1979C189.367 98.278 189.385 98.3666 189.38 98.4554C189.374 98.5442 189.347 98.6302 189.299 98.7053C189.251 98.7804 189.185 98.8423 189.107 98.8849C189.029 98.9276 188.941 98.9497 188.852 98.9492ZM186.844 94.7254C186.745 94.7254 186.647 94.6973 186.563 94.6443C186.478 94.5913 186.411 94.5155 186.368 94.4258L185.364 92.3133C185.334 92.2508 185.317 92.1832 185.314 92.1142C185.31 92.0451 185.321 91.9761 185.344 91.911C185.391 91.7796 185.488 91.6722 185.615 91.6125C185.741 91.5527 185.886 91.5455 186.018 91.5925C186.149 91.6394 186.257 91.7366 186.317 91.8627L187.321 93.974C187.359 94.0542 187.377 94.1428 187.372 94.2316C187.366 94.3203 187.339 94.4063 187.291 94.4815C187.243 94.5566 187.177 94.6184 187.099 94.6611C187.021 94.7038 186.933 94.7259 186.844 94.7254ZM184.763 90.58C184.697 90.5804 184.633 90.5683 184.572 90.5443L182.389 89.6979C182.322 89.6749 182.26 89.6386 182.207 89.5911C182.154 89.5436 182.111 89.4859 182.082 89.4215C182.052 89.3572 182.035 89.2874 182.033 89.2165C182.03 89.1455 182.043 89.0748 182.068 89.0087C182.094 88.9425 182.133 88.8823 182.183 88.8315C182.232 88.7808 182.292 88.7405 182.358 88.7133C182.423 88.6861 182.494 88.6724 182.565 88.673C182.636 88.6737 182.706 88.6887 182.771 88.7171L184.953 89.5648C185.068 89.6091 185.163 89.6921 185.223 89.7992C185.282 89.9063 185.303 90.0308 185.28 90.1513C185.257 90.2718 185.193 90.3806 185.099 90.4588C185.004 90.5371 184.885 90.58 184.763 90.58ZM180.397 88.8859C180.331 88.8862 180.267 88.8741 180.206 88.8503L178.023 88.0027C177.893 87.9521 177.788 87.8519 177.732 87.7243C177.676 87.5967 177.673 87.452 177.724 87.3221C177.774 87.1922 177.875 87.0877 178.002 87.0316C178.13 86.9755 178.275 86.9725 178.405 87.0231L180.588 87.8695C180.702 87.9145 180.797 87.9977 180.856 88.1049C180.916 88.2121 180.936 88.3365 180.913 88.4568C180.89 88.577 180.826 88.6857 180.732 88.764C180.638 88.8423 180.519 88.8854 180.397 88.8859ZM176.032 87.1919C175.967 87.1917 175.902 87.1796 175.841 87.1562L173.658 86.3086C173.534 86.2542 173.435 86.1537 173.383 86.0281C173.33 85.9026 173.329 85.7618 173.378 85.6351C173.427 85.5084 173.524 85.4057 173.648 85.3485C173.771 85.2912 173.912 85.2838 174.041 85.3278L176.222 86.1755C176.336 86.2204 176.431 86.3035 176.49 86.4106C176.55 86.5176 176.57 86.6419 176.547 86.7621C176.525 86.8823 176.461 86.991 176.367 87.0694C176.273 87.1478 176.154 87.1911 176.032 87.1919ZM171.666 85.4978C171.601 85.4977 171.536 85.4852 171.475 85.461L169.292 84.6146C169.168 84.5601 169.069 84.4596 169.017 84.3341C168.964 84.2086 168.963 84.0677 169.012 83.9411C169.062 83.8144 169.158 83.7117 169.282 83.6544C169.405 83.5972 169.546 83.5898 169.675 83.6338L171.858 84.4814C171.972 84.5264 172.067 84.6096 172.126 84.7168C172.185 84.824 172.205 84.9484 172.182 85.0687C172.16 85.1889 172.096 85.2976 172.001 85.3759C171.907 85.4542 171.789 85.4973 171.666 85.4978ZM167.301 83.8026C167.236 83.803 167.171 83.7909 167.11 83.7669L164.928 82.9193C164.799 82.8679 164.696 82.7678 164.64 82.6409C164.585 82.5139 164.582 82.3703 164.633 82.2412C164.683 82.1122 164.782 82.0081 164.909 81.9517C165.035 81.8952 165.179 81.8909 165.309 81.9397L167.492 82.7862C167.606 82.8311 167.7 82.9142 167.76 83.0213C167.819 83.1283 167.839 83.2526 167.817 83.3728C167.794 83.4931 167.73 83.6017 167.636 83.6801C167.542 83.7585 167.424 83.8018 167.301 83.8026ZM162.935 82.1086C162.87 82.1082 162.806 82.0962 162.745 82.0729L160.562 81.2253C160.437 81.1708 160.338 81.0703 160.286 80.9448C160.234 80.8193 160.232 80.6785 160.281 80.5518C160.331 80.4251 160.427 80.3224 160.551 80.2651C160.674 80.2079 160.815 80.2005 160.944 80.2445L163.127 81.0921C163.241 81.1371 163.336 81.2203 163.395 81.3275C163.454 81.4347 163.474 81.5591 163.452 81.6794C163.429 81.7997 163.365 81.9083 163.271 81.9866C163.177 82.0649 163.058 82.1081 162.935 82.1086ZM158.571 80.4145C158.505 80.4145 158.44 80.402 158.379 80.3776L156.197 79.5312C156.067 79.4808 155.962 79.3807 155.905 79.2531C155.849 79.1255 155.846 78.9807 155.896 78.8506C155.947 78.7206 156.047 78.6159 156.175 78.5596C156.303 78.5033 156.448 78.5 156.578 78.5505L158.761 79.3981C158.875 79.443 158.97 79.5261 159.029 79.6332C159.088 79.7402 159.108 79.8645 159.086 79.9847C159.063 80.105 159 80.2136 158.906 80.292C158.811 80.3704 158.693 80.4137 158.571 80.4145ZM154.205 78.7193C154.139 78.7195 154.075 78.7074 154.014 78.6836L151.831 77.8372C151.706 77.7827 151.608 77.6822 151.555 77.5567C151.503 77.4312 151.501 77.2904 151.551 77.1637C151.6 77.037 151.697 76.9343 151.82 76.877C151.944 76.8198 152.085 76.8124 152.213 76.8564L154.396 77.704C154.511 77.7484 154.606 77.8315 154.666 77.9387C154.726 78.0459 154.746 78.1706 154.723 78.2912C154.7 78.4117 154.636 78.5205 154.541 78.5987C154.447 78.6769 154.328 78.7195 154.205 78.7193ZM149.84 77.0252C149.774 77.025 149.709 77.0129 149.648 76.9895L147.466 76.1419C147.338 76.0905 147.234 75.9904 147.179 75.8635C147.124 75.7365 147.121 75.5929 147.171 75.4639C147.221 75.3348 147.321 75.2307 147.447 75.1743C147.574 75.1178 147.718 75.1135 147.847 75.1623L150.03 76.0088C150.144 76.0537 150.239 76.1368 150.298 76.2439C150.358 76.3509 150.378 76.4752 150.355 76.5955C150.333 76.7157 150.269 76.8243 150.175 76.9027C150.081 76.9811 149.962 77.0244 149.84 77.0252ZM145.474 75.3312C145.409 75.3309 145.344 75.3188 145.283 75.2955L143.1 74.4479C142.976 74.3934 142.877 74.2929 142.825 74.1674C142.772 74.0419 142.771 73.9011 142.82 73.7744C142.87 73.6477 142.966 73.545 143.09 73.4877C143.213 73.4305 143.354 73.4231 143.483 73.4671L145.666 74.3147C145.78 74.3597 145.875 74.4429 145.934 74.5501C145.993 74.6573 146.013 74.7817 145.99 74.902C145.968 75.0223 145.904 75.1309 145.809 75.2092C145.715 75.2876 145.597 75.3307 145.474 75.3312ZM141.109 73.6359C141.044 73.6363 140.979 73.6242 140.917 73.6003L138.739 72.7562C138.609 72.7058 138.504 72.6057 138.448 72.4781C138.391 72.3504 138.388 72.2057 138.439 72.0756C138.489 71.9456 138.589 71.8409 138.717 71.7846C138.845 71.7283 138.99 71.725 139.12 71.7754L141.303 72.6231C141.418 72.6674 141.513 72.7504 141.573 72.8575C141.632 72.9646 141.653 73.0891 141.63 73.2096C141.607 73.3301 141.543 73.4389 141.449 73.5171C141.354 73.5954 141.236 73.6383 141.113 73.6383L141.109 73.6359ZM136.743 71.9419C136.678 71.9416 136.614 71.9295 136.553 71.9062L134.37 71.0586C134.305 71.0335 134.246 70.9961 134.197 70.9483C134.147 70.9005 134.107 70.8434 134.079 70.7802C134.051 70.717 134.036 70.649 134.034 70.58C134.033 70.5109 134.045 70.4423 134.07 70.378C134.095 70.3137 134.133 70.2549 134.181 70.2051C134.229 70.1553 134.286 70.1153 134.349 70.0875C134.412 70.0598 134.481 70.0447 134.55 70.0433C134.619 70.0418 134.688 70.054 134.752 70.079L136.934 70.9254C137.048 70.9704 137.142 71.0535 137.202 71.1606C137.261 71.2676 137.281 71.3919 137.259 71.5121C137.236 71.6323 137.172 71.741 137.078 71.8194C136.984 71.8978 136.866 71.9411 136.743 71.9419ZM132.379 70.2478C132.313 70.2476 132.248 70.2355 132.187 70.2122L130.004 69.3645C129.879 69.3101 129.78 69.2096 129.728 69.0841C129.676 68.9585 129.674 68.8177 129.724 68.691C129.773 68.5644 129.869 68.4617 129.993 68.4044C130.116 68.3471 130.257 68.3397 130.386 68.3838L132.569 69.2314C132.683 69.2763 132.778 69.3595 132.837 69.4665C132.896 69.5736 132.916 69.6978 132.894 69.8181C132.871 69.9383 132.808 70.0469 132.714 70.1253C132.619 70.2037 132.501 70.2471 132.379 70.2478ZM128.013 68.5538C127.947 68.5538 127.883 68.5412 127.822 68.5169L126.393 67.9641C126.273 67.9171 126.174 67.8278 126.115 67.713C126.056 67.5983 126.042 67.466 126.074 67.3412L126.28 66.5566C126.297 66.4898 126.328 66.427 126.369 66.372C126.411 66.3169 126.463 66.2706 126.523 66.2356C126.583 66.2007 126.649 66.1778 126.717 66.1683C126.786 66.1588 126.855 66.1629 126.922 66.1803C126.989 66.1977 127.052 66.2281 127.107 66.2698C127.162 66.3114 127.209 66.3635 127.244 66.4231C127.279 66.4826 127.302 66.5485 127.311 66.6169C127.321 66.6853 127.317 66.7549 127.299 66.8217L127.212 67.1534L128.2 67.5373C128.314 67.5823 128.408 67.6654 128.468 67.7725C128.527 67.8795 128.547 68.0038 128.524 68.124C128.502 68.2442 128.438 68.3529 128.344 68.4313C128.25 68.5097 128.132 68.553 128.009 68.5538H128.013ZM127.385 64.9529C127.34 64.9532 127.295 64.9476 127.252 64.9362C127.116 64.901 127.001 64.8136 126.93 64.6932C126.859 64.5729 126.839 64.4294 126.874 64.2943L127.47 62.0355C127.487 61.9687 127.518 61.906 127.559 61.851C127.601 61.7959 127.653 61.7496 127.713 61.7148C127.773 61.6799 127.839 61.6571 127.907 61.6477C127.976 61.6382 128.046 61.6424 128.113 61.6599C128.18 61.6774 128.242 61.7078 128.298 61.7496C128.353 61.7913 128.399 61.8434 128.434 61.9031C128.469 61.9627 128.492 62.0286 128.501 62.097C128.511 62.1654 128.506 62.235 128.489 62.3018L127.894 64.5606C127.864 64.6732 127.799 64.773 127.707 64.8444C127.615 64.9158 127.502 64.9548 127.385 64.9553V64.9529ZM129.773 61.3865C129.655 61.3869 129.54 61.3478 129.447 61.2754C129.354 61.2029 129.288 61.1014 129.26 60.987C129.231 60.8726 129.242 60.7521 129.291 60.6447C129.34 60.5374 129.423 60.4494 129.527 60.395L131.601 59.3084C131.725 59.2436 131.869 59.2305 132.002 59.272C132.136 59.3135 132.247 59.4061 132.312 59.5295C132.377 59.653 132.39 59.7971 132.348 59.9302C132.307 60.0633 132.214 60.1745 132.09 60.2393L130.017 61.3258C129.942 61.3659 129.858 61.3867 129.773 61.3865ZM133.92 59.2121C133.802 59.2126 133.687 59.1735 133.594 59.101C133.501 59.0286 133.435 58.927 133.406 58.8127C133.378 58.6983 133.389 58.5778 133.438 58.4704C133.486 58.363 133.57 58.2751 133.674 58.2207L135.746 57.1341C135.808 57.1019 135.875 57.0821 135.944 57.0758C136.012 57.0695 136.082 57.0768 136.148 57.0972C136.214 57.1177 136.275 57.151 136.329 57.1951C136.382 57.2393 136.426 57.2935 136.458 57.3546C136.49 57.4157 136.51 57.4826 136.516 57.5514C136.523 57.6201 136.515 57.6895 136.495 57.7554C136.474 57.8214 136.441 57.8827 136.397 57.9358C136.353 57.9889 136.298 58.0328 136.237 58.0649L134.164 59.1574C134.088 59.1953 134.004 59.2141 133.92 59.2121ZM138.065 57.0378C137.947 57.0383 137.832 56.9992 137.739 56.9267C137.646 56.8543 137.58 56.7527 137.552 56.6383C137.524 56.524 137.535 56.4034 137.583 56.2961C137.632 56.1887 137.715 56.1008 137.82 56.0463L139.893 54.9598C140.017 54.8948 140.161 54.8816 140.295 54.9229C140.428 54.9643 140.54 55.0568 140.605 55.1803C140.67 55.3037 140.683 55.4479 140.642 55.5811C140.6 55.7143 140.508 55.8256 140.384 55.8906L138.311 56.9772C138.235 57.0172 138.151 57.0381 138.065 57.0378ZM142.212 54.8635C142.094 54.8639 141.979 54.8248 141.886 54.7524C141.793 54.6799 141.727 54.5784 141.699 54.464C141.671 54.3497 141.682 54.2291 141.73 54.1217C141.779 54.0144 141.862 53.9264 141.967 53.872L144.04 52.7854C144.101 52.7534 144.168 52.7336 144.237 52.7274C144.306 52.7211 144.375 52.7285 144.441 52.749C144.507 52.7695 144.569 52.8028 144.622 52.847C144.675 52.8912 144.719 52.9454 144.751 53.0066C144.783 53.0677 144.803 53.1345 144.809 53.2033C144.815 53.272 144.808 53.3413 144.788 53.4072C144.767 53.4731 144.734 53.5343 144.689 53.5874C144.645 53.6404 144.591 53.6842 144.53 53.7163L142.457 54.804C142.381 54.8431 142.297 54.8634 142.212 54.8635ZM146.361 52.6891C146.243 52.6896 146.128 52.6505 146.035 52.5781C145.942 52.5056 145.876 52.4041 145.848 52.2897C145.82 52.1753 145.831 52.0548 145.879 51.9474C145.928 51.8401 146.011 51.7521 146.116 51.6977L148.189 50.6111C148.251 50.579 148.317 50.5593 148.386 50.553C148.455 50.5468 148.525 50.5541 148.591 50.5747C148.657 50.5952 148.718 50.6285 148.771 50.6727C148.824 50.7169 148.868 50.7711 148.9 50.8322C148.932 50.8933 148.952 50.9602 148.958 51.0289C148.965 51.0977 148.957 51.167 148.937 51.2329C148.916 51.2988 148.883 51.36 148.839 51.413C148.794 51.4661 148.74 51.5099 148.679 51.5419L146.599 52.6285C146.526 52.6676 146.444 52.6884 146.361 52.6891ZM150.508 50.5148C150.39 50.5145 150.276 50.475 150.184 50.4025C150.091 50.3301 150.026 50.2289 149.997 50.115C149.969 50.0011 149.98 49.8811 150.028 49.7739C150.075 49.6667 150.158 49.5785 150.261 49.5233L152.335 48.4368C152.459 48.3718 152.603 48.3586 152.736 48.3999C152.87 48.4413 152.981 48.5339 153.046 48.6573C153.112 48.7807 153.125 48.9249 153.083 49.0581C153.042 49.1913 152.949 49.3027 152.826 49.3676L150.752 50.4554C150.676 50.4948 150.591 50.5152 150.506 50.5148H150.508ZM154.651 48.3393C154.533 48.3398 154.418 48.3007 154.325 48.2282C154.232 48.1558 154.166 48.0542 154.138 47.9398C154.11 47.8255 154.121 47.7049 154.169 47.5976C154.218 47.4902 154.301 47.4023 154.406 47.3478L156.479 46.2613C156.541 46.2291 156.608 46.2093 156.676 46.203C156.745 46.1966 156.815 46.2039 156.881 46.2244C156.947 46.2449 157.008 46.2782 157.061 46.3223C157.115 46.3665 157.159 46.4207 157.191 46.4818C157.223 46.5429 157.243 46.6098 157.249 46.6785C157.256 46.7473 157.248 46.8167 157.228 46.8826C157.207 46.9486 157.174 47.0099 157.13 47.063C157.085 47.1161 157.031 47.1599 156.97 47.1921L154.897 48.2799C154.821 48.319 154.737 48.3394 154.651 48.3393ZM158.721 46.0294C158.606 46.0296 158.494 45.9924 158.403 45.9236C158.311 45.8547 158.245 45.7579 158.214 45.6479C158.182 45.5379 158.188 45.4207 158.229 45.314C158.27 45.2074 158.346 45.1171 158.443 45.057L158.712 44.8906C158.771 44.8543 158.836 44.8299 158.905 44.8188C158.973 44.8077 159.043 44.8102 159.11 44.826C159.177 44.8419 159.241 44.8708 159.297 44.9111C159.353 44.9515 159.401 45.0025 159.437 45.0612C159.473 45.1199 159.498 45.1851 159.509 45.2533C159.52 45.3214 159.517 45.391 159.502 45.4582C159.486 45.5254 159.457 45.5888 159.416 45.6447C159.376 45.7007 159.325 45.7483 159.266 45.7845L158.997 45.951C158.914 46.0029 158.818 46.0305 158.721 46.0306V46.0294Z" fill="white"/>
<path fill-rule="evenodd" clip-rule="evenodd" d="M160.54 45.8006C160.6 46.9967 159.677 48.0146 158.478 48.0741C157.28 48.1337 156.26 47.2123 156.201 46.0162C156.141 44.8201 157.064 43.8023 158.262 43.7427C159.461 43.6832 160.48 44.6045 160.54 45.8006ZM59.6999 132.932C59.6999 134.428 58.4853 135.64 56.987 135.64C55.4887 135.64 54.274 134.428 54.274 132.932C54.274 131.437 55.4887 130.224 56.987 130.224C58.4853 130.224 59.6999 131.437 59.6999 132.932Z" fill="#FFD771"/>
<path d="M99.6197 42.3488L113.969 37.8896L113.843 35.5227L99.191 40.3172L99.6197 42.3488Z" fill="#7E7B90"/>
<path d="M129.896 68.718C132.695 65.9241 132.695 61.3943 129.896 58.6004C127.097 55.8065 122.559 55.8065 119.761 58.6004C116.962 61.3943 116.962 65.9241 119.761 68.718C122.559 71.5119 127.097 71.5119 129.896 68.718Z" fill="url(#paint0_linear_50_1876)"/>
<path d="M129.323 66.2059C130.721 63.7423 129.853 60.6144 127.385 59.2194C124.917 57.8245 121.784 58.6908 120.386 61.1543C118.989 63.6179 119.857 66.7458 122.325 68.1408C124.793 69.5357 127.926 68.6695 129.323 66.2059Z" fill="#24F5CB"/>
<path fill-rule="evenodd" clip-rule="evenodd" d="M145.446 15.7303C146.405 19.6208 148.777 26.12 154.563 35.9599C155.029 36.7522 155.88 37.3001 156.801 37.3001C157.722 37.3001 158.575 36.7247 159.041 35.9314C164.74 26.238 167.121 19.7948 168.103 15.8932C168.57 14.5545 168.792 13.1493 168.769 11.7474C168.783 11.2483 168.749 11.0139 168.749 11.0139H168.734C168.52 8.27462 167.363 5.59498 165.265 3.49981C160.591 -1.1666 153.013 -1.1666 148.339 3.49981C146.241 5.59497 145.084 8.27462 144.87 11.0139H144.835C144.835 11.0139 144.785 11.3657 144.835 12.1239C144.853 13.3435 145.056 14.561 145.446 15.7303Z" fill="#FFD771"/>
<path opacity="0.8" d="M156.842 18.811C160.659 18.811 163.753 15.7217 163.753 11.9109C163.753 8.10004 160.659 5.01074 156.842 5.01074C153.025 5.01074 149.93 8.10004 149.93 11.9109C149.93 15.7217 153.025 18.811 156.842 18.811Z" fill="#FFFFA3"/>
</g>
<defs>
<linearGradient id="paint0_linear_50_1876" x1="57224.2" y1="2029.33" x2="56324.2" y2="5335.69" gradientUnits="userSpaceOnUse">
<stop stop-color="#DAE3FE"/>
<stop offset="1" stop-color="#E9EFFD"/>
</linearGradient>
<clipPath id="clip0_50_1876">
<rect width="265" height="156" fill="white"/>
</clipPath>
</defs>
</svg>
